<?xml version="1.0" encoding="UTF-8"?>
<svg width="140px" height="23px" viewBox="0 0 140 23" version="1.1" xmlns="http://www.w3.org/2000/svg" xmlns:xlink="http://www.w3.org/1999/xlink">
    <title>coindesk-logo</title>
    <g id="coindesk-logo" stroke="none" stroke-width="1" fill="none" fill-rule="evenodd">
        <g id="Group-21">
            <path d="M20.8926205,0.128989816 C20.7528144,0.0992225937 20.6130083,0.0496133002 20.4732022,0 L19.6642544,0 C18.8731749,0.201278562 18.2498411,0.680319699 17.6142702,1.16880506 L17.5470203,1.22044993 C16.4884574,2.04401729 15.0402567,2.04401729 14.0415798,1.21053031 C13.4125064,0.684641668 12.7732535,0.228212085 11.9742687,0 L11.1753921,0 C10.3264734,0.19844562 9.66734875,0.704487422 8.99821788,1.22044993 C7.92962705,2.04401729 6.47151756,2.04401729 5.46286684,1.18076059 C4.83365272,0.644952328 4.18452353,0.208370663 3.38557115,0 L2.58660794,0 C2.39686798,0.0694553716 2.19713259,0.138910527 1.9973972,0.208362 L1.9973972,0.208366331 L1.99738637,0.208370663 C1.0286535,0.565572563 0.4294365,1.26013927 0.129830169,2.22259225 C0.10985663,2.28212085 0.0873855321,2.34169276 0.0649148677,2.40122136 C0.0424445281,2.46073912 0.0199738637,2.52026772 0,2.57979632 L0,3.37360479 C0.199738637,4.19717214 0.659135446,4.84212122 1.2283878,5.45730059 C2.12721871,6.47929299 2.13720331,7.99741839 1.24836784,8.99956071 C0.68909792,9.62467053 0.229698946,10.2795392 0.00998691022,11.0931978 L0.00998691022,11.8869846 C0.219712176,12.700589 0.68909792,13.3455814 1.24836784,13.9806109 C2.11722328,14.9727902 2.12721871,16.4909481 1.25835244,17.4831275 C0.69908469,18.1281199 0.209725407,18.7829669 0.00998691022,19.6263519 L0.00998691022,20.4201387 C0.0898759434,20.6086766 0.159779648,20.8070692 0.229682702,21.00557 L0.229698946,21.00557 C0.589226977,21.9680771 1.27832165,22.5733261 2.24705561,22.8710232 C2.30697406,22.8908408 2.36690334,22.9131491 2.42682179,22.9354574 C2.48674024,22.9578741 2.54666952,22.9801824 2.60658797,23 L3.40554036,23 C4.22445112,22.7916445 4.87362362,22.3252271 5.51277903,21.7695763 C6.53145767,20.8865561 8.06942233,20.8865561 9.07811636,21.7795392 C9.71726094,22.33519 10.376418,22.7916445 11.195318,23 L11.9943029,23 C12.0762806,22.9728185 12.1582583,22.9415218 12.2412106,22.9099003 L12.2412106,22.9099003 L12.2413189,22.9099003 C12.3401903,22.8721061 12.4403612,22.8338787 12.5435643,22.8014992 C13.8718848,22.345153 14.7506815,20.9659348 14.5410265,19.6561324 C14.3012661,18.1281199 13.172746,17.096197 11.6846935,17.036636 C10.8158381,17.0068554 10.0867671,17.2946979 9.4576071,17.8701663 C8.60874253,18.6539901 7.62999148,19.021103 6.48150216,18.6936253 C4.25443742,18.0685588 3.47545424,15.3696836 5.0533898,13.6927684 C5.7624591,12.9387251 6.08205304,12.0853772 5.97216826,11.0733802 C5.88745074,10.3155683 5.43872836,9.76066473 4.98593417,9.20075805 L4.98585836,9.20068225 L4.98578256,9.20056312 C4.95837363,9.16666745 4.93093221,9.13278261 4.90357743,9.09876782 C3.24575421,7.04487422 4.80370974,4.66350295 6.59135446,4.22693103 C7.68993159,3.95902527 8.60874253,4.29637925 9.40769492,5.07030515 C10.6260981,6.24114612 12.4636442,6.3304336 13.5822014,5.15962512 C14.8405646,3.84985522 16.8079214,3.81016588 18.0763559,5.16955558 C18.9151925,6.06257116 20.3134702,6.21138723 21.4119932,5.67556489 C22.5604392,5.10998366 23.1796579,3.95902527 23.0498147,2.59963557 C22.9499687,1.47842523 22.0411748,0.446503458 20.8926205,0.128989816 Z M20.1135616,19.0607382 C19.5244483,19.0508835 19.0750328,19.4775575 19.0750328,20.0728434 C19.0750328,20.6682377 19.5143771,21.1147292 20.0936357,21.1047663 C20.6629313,21.1047663 21.1422356,20.6185313 21.1322727,20.0629888 C21.1223097,19.5271556 20.6629313,19.0707011 20.1135616,19.0607382 Z M19.0750328,11.7283355 C19.0849958,11.1329413 19.5143771,10.716187 20.1236328,10.7261066 C20.6828572,10.7360262 21.1322727,11.1925024 21.1322727,11.7381902 C21.1322727,12.293841 20.6430055,12.780076 20.0836727,12.780076 C19.5143771,12.770113 19.0750328,12.3038039 19.0750328,11.7283355 Z M11.5447791,12.8396371 C12.1240377,12.8496 12.5734532,12.4031085 12.5734532,11.8176772 C12.5834161,11.2222829 12.1439636,10.785711 11.5447791,10.7956306 C10.9855547,10.8055936 10.5360959,11.2422088 10.5161375,11.7878966 C10.4961683,12.3435474 10.9754834,12.8297824 11.5447791,12.8396371 Z" id="Shape" fill="#F8BF1E"></path>
            <path d="M34.0492309,22.4866917 C36.6649371,22.4866917 38.5555142,21.7636202 39.9796739,20.3950148 C41.2486499,19.1813764 42.0774153,17.5029451 42.2069336,15.6695466 L37.6232208,15.6695466 C37.4159482,17.4512894 36.0693263,18.7423571 34.0233489,18.7423571 C31.2782327,18.7423571 29.5689378,16.2891985 29.5689378,12.9064538 C29.5689378,9.5495261 30.9933141,7.04472261 33.9974669,7.04472261 C35.96569,7.04472261 37.260548,8.31003828 37.4937025,9.9626851 L42.0774153,9.9626851 C41.844369,7.89686845 40.9120756,6.08928701 39.3064171,4.87561621 C37.9857854,3.86853574 36.1728543,3.24878641 34.0233489,3.24878641 C28.5071261,3.24878641 24.9073625,7.40623673 24.9073625,12.9064538 C24.9073625,18.4325312 28.6107624,22.4866917 34.0492309,22.4866917 Z M50.310923,19.4913107 C48.4722182,19.4913107 47.5139345,17.8903087 47.5139345,15.4886975 C47.5139345,13.0871946 48.4722182,11.460419 50.310923,11.460419 C52.1496278,11.460419 53.1337935,13.0871946 53.1337935,15.4886975 C53.1337935,17.8903087 52.1496278,19.4913107 50.310923,19.4913107 Z M50.336805,22.4866917 C54.6099338,22.4866917 57.4069223,19.4654287 57.4069223,15.4886975 C57.4069223,11.5120747 54.6099338,8.49078993 50.336805,8.49078993 C46.0895582,8.49078993 43.2408057,11.5120747 43.2408057,15.4886975 C43.2408057,19.4654287 46.0895582,22.4866917 50.336805,22.4866917 Z M85.0392585,18.2259084 L85.0392585,7.43206458 L87.7843747,7.43206458 C90.6590093,7.43206458 92.2905498,9.60117098 92.2905498,12.9581095 C92.2905498,16.3408542 90.7367635,18.2259084 87.7326108,18.2259084 L85.0392585,18.2259084 Z M80.4553292,22.0735544 L88.0692933,22.0735544 C90.400081,22.0735544 92.2646678,21.479568 93.7149261,20.3950148 C95.7867854,18.8198948 96.9262431,16.2117691 96.9262431,12.9581095 C96.9262431,7.30294698 93.4818798,3.61030054 88.3541036,3.61030054 L80.4553292,3.61030054 L80.4553292,22.0735544 Z M104.931036,22.460918 C106.614449,22.460918 107.961071,22.0218987 109.074755,21.2471714 C110.239986,20.4466705 111.017529,19.3104616 111.30234,18.1227053 L107.184178,18.1227053 C106.821613,18.9489799 106.096484,19.439655 104.982909,19.439655 C103.247732,19.439655 102.263566,18.3292198 102.004638,16.547477 L111.535169,16.547477 C111.56116,13.8619219 110.783617,11.5637304 109.204707,10.1176306 C108.064707,9.08472223 106.562685,8.4649729 104.672108,8.4649729 C100.632026,8.4649729 97.8610273,11.4861927 97.8610273,15.4371501 C97.8610273,19.439655 100.55438,22.460918 104.931036,22.460918 Z M102.03052,14.0426627 C102.315438,12.4675427 103.144095,11.460419 104.749754,11.460419 C106.122366,11.460419 107.106532,12.4675427 107.261932,14.0426627 L102.03052,14.0426627 Z M118.593699,22.4866917 C122.064486,22.4866917 124.627779,20.9890012 124.627779,18.0968233 C124.627779,14.7140785 121.882554,14.1200921 119.552091,13.7328368 C117.86922,13.4229025 116.367198,13.2938174 116.367198,12.3642313 C116.367198,11.5378484 117.169648,11.1504847 118.206011,11.1504847 C119.371242,11.1504847 120.173692,11.5120747 120.329634,12.6999393 L124.2141,12.6999393 C124.006177,10.0918027 121.986515,8.4649729 118.230918,8.4649729 C115.098005,8.4649729 112.507639,9.91104022 112.507639,12.6999393 C112.507639,15.7986317 114.968054,16.4183919 117.273609,16.8057555 C119.034451,17.1155815 120.639352,17.2446666 120.639352,18.4325312 C120.639352,19.2846879 119.836902,19.7494809 118.567709,19.7494809 C117.169648,19.7494809 116.289227,19.103947 116.133285,17.7869973 L112.145941,17.7869973 C112.27481,20.704949 114.709234,22.4866917 118.593699,22.4866917 Z M125.998766,22.0735544 L130.168042,22.0735544 L130.168042,18.0193938 L131.437235,16.6765621 L134.622128,22.0735544 L139.516967,22.0735544 L134.311328,13.8102662 L138.973336,8.85231488 L134.104489,8.85231488 L130.168042,13.3195911 L130.168042,3.61030054 L125.998766,3.61030054 L125.998766,22.0735544 Z" id="Shape" fill="#000000" fill-rule="nonzero"></path>
            <path d="M70.0291072,22.0735544 L65.8078508,22.0735544 L65.8078508,8.85231488 L69.873707,8.85231488 L69.873707,10.6599072 L69.9514612,10.6599072 C70.9355187,9.23965685 72.2046029,8.4649729 74.0433077,8.4649729 C76.9438242,8.4649729 78.6531191,10.5307895 78.6531191,13.4745582 L78.6531191,22.0735544 L74.4317543,22.0735544 L74.4317543,14.3267149 C74.4317543,12.9323358 73.7325072,11.9768677 72.3598949,11.9768677 C70.9615089,11.9768677 70.0291072,13.1388503 70.0291072,14.7657342 L70.0291072,22.0735544 Z" id="Path" fill="#000000" fill-rule="nonzero"></path>
            <polygon id="Path" fill="#000000" fill-rule="nonzero" points="58.5896971 11.5427215 58.5896971 8.96997509 64.702397 8.85497888 64.702397 22.0799437 60.6859224 22.0799437 60.6859224 11.5427215"></polygon>
            <ellipse id="Oval" fill="#000000" fill-rule="nonzero" cx="62.395867" cy="5.06006064" rx="2.30668167" ry="2.3"></ellipse>
        </g>
    </g>
</svg>