<svg width="226" height="65" viewBox="0 0 226 65" fill="none" xmlns="http://www.w3.org/2000/svg">
<g filter="url(#filter0_di_3_4)">
<path d="M5.03509 46.138H4.16109C4.16109 44.6967 4.59042 41.9367 5.44909 37.858C6.33842 33.7793 6.78309 31.464 6.78309 30.912C6.78309 29.9 6.35375 28.8267 5.49509 27.692L5.08109 27.14L5.12709 26.542C6.78309 26.082 9.43575 25.852 13.0851 25.852C13.4838 26.3733 13.6984 27.324 13.7291 28.704C16.3971 26.6493 18.6511 25.622 20.4911 25.622C21.5951 25.622 22.4691 26.0053 23.1131 26.772C23.7878 27.5387 24.1251 28.5047 24.1251 29.67C24.1251 30.8047 23.7724 32.7827 23.0671 35.604C22.3618 38.4253 22.0091 40.3267 22.0091 41.308C22.0091 42.2587 22.1318 42.734 22.3771 42.734C22.5611 42.734 23.2051 42.4427 24.3091 41.86L24.8611 41.584L25.6891 43.194C25.4131 43.4393 25.0451 43.746 24.5851 44.114C24.1251 44.482 23.2664 44.988 22.0091 45.632C20.7824 46.2453 19.6784 46.552 18.6971 46.552C16.4584 46.552 15.3391 45.2793 15.3391 42.734C15.3391 41.6607 15.6764 39.6827 16.3511 36.8C17.0564 33.9173 17.4091 32.062 17.4091 31.234C17.4091 30.406 17.1484 29.992 16.6271 29.992C15.7378 29.992 14.6491 30.3753 13.3611 31.142C13.2691 31.6633 12.9624 33.0433 12.4411 35.282C11.3678 40.0967 10.8311 43.5007 10.8311 45.494C9.75775 45.9233 7.82575 46.138 5.03509 46.138ZM26.9685 38.042C26.9685 34.2087 28.1185 31.188 30.4185 28.98C32.7491 26.7413 35.3865 25.622 38.3305 25.622C40.1398 25.622 41.6271 26.0667 42.7925 26.956C43.9578 27.8453 44.5405 29.0413 44.5405 30.544C44.5405 32.016 44.1571 33.258 43.3905 34.27C42.6545 35.282 41.7498 36.064 40.6765 36.616C38.4991 37.6893 36.5058 38.364 34.6965 38.64L33.5925 38.778C33.8071 41.6607 34.9878 43.102 37.1345 43.102C37.8705 43.102 38.6525 42.918 39.4805 42.55C40.3085 42.182 40.9525 41.814 41.4125 41.446L42.1025 40.894L43.2065 42.366C42.9611 42.7033 42.4705 43.148 41.7345 43.7C40.9985 44.252 40.3085 44.712 39.6645 45.08C37.8858 46.0613 35.9385 46.552 33.8225 46.552C31.7065 46.552 30.0351 45.8007 28.8085 44.298C27.5818 42.7953 26.9685 40.71 26.9685 38.042ZM33.5465 36.524C35.1105 36.248 36.3525 35.5887 37.2725 34.546C38.1925 33.5033 38.6525 32.154 38.6525 30.498C38.6525 28.842 38.1618 28.014 37.1805 28.014C36.0151 28.014 35.1105 29.0107 34.4665 31.004C33.8531 32.9667 33.5465 34.8067 33.5465 36.524ZM59.8775 42.872C60.0615 42.872 60.6748 42.596 61.7175 42.044L62.1775 41.814L63.0055 43.424C62.7602 43.6693 62.4382 43.9607 62.0395 44.298C61.6408 44.6353 60.8588 45.0953 59.6935 45.678C58.5588 46.2607 57.4702 46.552 56.4275 46.552C55.4155 46.552 54.5875 46.2913 53.9435 45.77C53.3302 45.218 52.8242 44.3287 52.4255 43.102L51.3675 39.836C49.0675 42.32 47.3502 44.5433 46.2155 46.506C46.0008 46.506 45.4642 46.3527 44.6055 46.046C43.7775 45.7393 43.1642 45.4787 42.7655 45.264C43.6548 43.7 46.2155 40.9247 50.4475 36.938C49.3742 33.718 48.5155 31.464 47.8715 30.176C47.7488 29.9307 47.0128 29.0567 45.6635 27.554L45.8015 27.002L48.6075 26.404C50.2328 26.1587 51.6742 26.0053 52.9315 25.944C53.5755 26.4653 54.0815 27.4313 54.4495 28.842C54.8482 30.2527 55.1548 31.326 55.3695 32.062C57.6388 29.578 59.1262 27.4927 59.8315 25.806C60.6902 25.9287 61.5335 26.2507 62.3615 26.772L62.7755 27.002C61.7022 29.026 59.5248 31.6787 56.2435 34.96C56.5808 36.1253 56.8875 37.0913 57.1635 37.858C58.3288 41.2007 59.2335 42.872 59.8775 42.872ZM77.8923 26.174C77.8309 26.9407 77.5703 27.83 77.1103 28.842C75.9449 28.7193 74.8409 28.658 73.7983 28.658H72.9703C71.5596 35.4967 70.8543 39.7593 70.8543 41.446C70.8543 42.3353 71.0383 42.78 71.4063 42.78C71.8049 42.78 72.8323 42.3967 74.4883 41.63L75.3163 43.148C72.5869 45.4173 70.0569 46.552 67.7263 46.552C66.6529 46.552 65.7636 46.2147 65.0583 45.54C64.3836 44.8653 64.0463 43.976 64.0463 42.872C64.0463 41.7373 64.1689 40.4647 64.4143 39.054C64.6903 37.6433 65.0583 35.926 65.5183 33.902C65.9783 31.8473 66.3156 30.1913 66.5303 28.934C65.3956 29.026 64.5523 29.118 64.0003 29.21C63.9389 28.842 63.9083 28.3513 63.9083 27.738C63.9083 27.094 63.9543 26.5727 64.0463 26.174H66.9443C67.1896 24.518 67.3123 22.954 67.3123 21.482L67.2663 20.056V19.918C69.6583 19.09 71.9123 18.676 74.0283 18.676C74.1509 19.2893 74.2123 20.056 74.2123 20.976C74.2123 21.896 73.9516 23.6287 73.4303 26.174H77.8923ZM80.6282 30.682C80.6282 29.9767 80.1835 29.0107 79.2942 27.784L78.8802 27.14L78.9262 26.542C80.6742 26.082 83.3115 25.852 86.8382 25.852C87.2368 26.312 87.4362 27.1707 87.4362 28.428C87.4362 29.6547 87.0528 32.5373 86.2862 37.076C85.5502 41.6147 84.9215 44.8807 84.4002 46.874C83.9095 48.8673 83.3882 50.4313 82.8362 51.566C82.2842 52.7313 81.4102 53.8047 80.2142 54.786C79.0488 55.798 77.8068 56.304 76.4882 56.304C75.1388 56.304 73.8968 56.0127 72.7622 55.43C71.6275 54.8473 70.7688 54.28 70.1862 53.728L69.3582 52.854L70.3702 51.382C71.8728 52.2713 72.9922 52.716 73.7282 52.716C74.8935 52.716 75.9362 51.9033 76.8562 50.278C77.7762 48.6527 78.6348 45.4327 79.4322 40.618C80.2295 35.7727 80.6282 32.4607 80.6282 30.682ZM82.2842 20.838C81.6708 20.2247 81.3642 19.412 81.3642 18.4C81.3642 17.388 81.7782 16.4987 82.6062 15.732C83.4648 14.9653 84.4462 14.582 85.5502 14.582C86.6542 14.582 87.5128 14.8887 88.1262 15.502C88.7395 16.1153 89.0462 16.928 89.0462 17.94C89.0462 18.9213 88.6015 19.7953 87.7122 20.562C86.8535 21.3287 85.8875 21.712 84.8142 21.712C83.7408 21.712 82.8975 21.4207 82.2842 20.838ZM103.898 39.974C103.898 41.906 103.039 43.4853 101.322 44.712C99.635 45.9387 97.703 46.552 95.5257 46.552C93.3484 46.552 91.6157 46.092 90.3277 45.172C89.0704 44.252 88.4417 43.4393 88.4417 42.734C88.4417 42.3047 88.9784 41.6147 90.0517 40.664C91.125 39.6827 92.0297 39.0847 92.7657 38.87C94.299 40.0047 95.5564 41.7987 96.5377 44.252C97.6724 44.16 98.2397 43.6233 98.2397 42.642C98.2397 41.2313 96.9977 39.238 94.5137 36.662C92.0297 34.0553 90.7877 31.9853 90.7877 30.452C90.7877 28.9187 91.4777 27.738 92.8577 26.91C94.2377 26.0513 95.8937 25.622 97.8257 25.622C99.7884 25.622 101.26 25.9747 102.242 26.68C103.223 27.3547 103.714 28.29 103.714 29.486C103.714 30.6513 102.778 32.2767 100.908 34.362C101.122 34.5767 101.398 34.868 101.736 35.236C102.073 35.5733 102.518 36.2327 103.07 37.214C103.622 38.1953 103.898 39.1153 103.898 39.974ZM99.4817 32.752C100.77 31.648 101.414 30.5593 101.414 29.486C101.414 28.4127 100.678 27.876 99.2057 27.876C98.5004 27.876 97.9177 28.0293 97.4577 28.336C96.9977 28.612 96.7677 28.934 96.7677 29.302C96.7677 29.9767 97.4424 30.9273 98.7917 32.154L99.4817 32.752ZM116.164 46.138H115.842C115.781 45.8927 115.75 45.3407 115.75 44.482C115.75 43.5927 116.164 41.2313 116.992 37.398C117.82 33.5647 118.234 31.372 118.234 30.82C118.234 29.8693 117.805 28.8267 116.946 27.692L116.532 27.14L116.578 26.542C118.234 26.082 120.887 25.852 124.536 25.852C124.904 26.6493 125.088 27.7687 125.088 29.21C125.426 28.658 126.131 27.922 127.204 27.002C128.278 26.082 129.382 25.622 130.516 25.622C132.172 25.622 133 27.0633 133 29.946C132.847 30.13 132.632 30.3753 132.356 30.682C132.111 30.958 131.59 31.3567 130.792 31.878C130.026 32.3993 129.274 32.7213 128.538 32.844C128.508 32.844 128.247 32.43 127.756 31.602C127.266 30.774 126.898 30.36 126.652 30.36C125.886 30.636 125.211 31.096 124.628 31.74C123.218 38.088 122.512 42.1973 122.512 44.068C122.512 44.7427 122.528 45.218 122.558 45.494C121.485 45.9233 119.354 46.138 116.164 46.138ZM138.44 46.552C136.324 46.552 134.668 45.816 133.472 44.344C132.276 42.8413 131.678 40.756 131.678 38.088C131.678 34.684 132.583 31.7553 134.392 29.302C136.232 26.8487 138.762 25.622 141.982 25.622L143.638 25.714C144.159 25.438 144.742 25.3 145.386 25.3C147.809 25.3 149.02 27.5847 149.02 32.154C150.277 32.0927 151.55 31.924 152.838 31.648L153.574 31.464L153.85 33.258C152.838 33.6873 151.473 34.0707 149.756 34.408L148.836 34.592C148.253 37.812 147.073 40.618 145.294 43.01C143.515 45.3713 141.231 46.552 138.44 46.552ZM140.924 42.596C142.212 42.596 143.362 41.768 144.374 40.112C145.417 38.456 146.137 36.708 146.536 34.868C143.255 34.868 141.614 33.6413 141.614 31.188C141.614 30.2067 141.813 29.2867 142.212 28.428L142.442 27.968C142.319 27.9067 142.166 27.876 141.982 27.876C141.798 27.876 141.66 27.9067 141.568 27.968C140.801 28.4587 140.081 29.6087 139.406 31.418C138.731 33.2273 138.394 35.2973 138.394 37.628C138.394 40.94 139.237 42.596 140.924 42.596ZM161.852 27.922C160.625 27.922 159.644 28.9493 158.908 31.004C158.172 33.028 157.804 35.2053 157.804 37.536C157.804 41.216 158.938 43.056 161.208 43.056C161.944 43.056 162.726 42.8873 163.554 42.55C164.382 42.182 165.041 41.8293 165.532 41.492L166.222 40.94L167.28 42.366C167.034 42.7033 166.544 43.148 165.808 43.7C165.072 44.252 164.382 44.712 163.738 45.08C163.094 45.448 162.266 45.7853 161.254 46.092C160.242 46.3987 159.245 46.552 158.264 46.552C155.872 46.552 154.078 45.77 152.882 44.206C151.686 42.642 151.088 40.5413 151.088 37.904C151.088 34.2547 152.084 31.2953 154.078 29.026C156.102 26.7567 158.693 25.622 161.852 25.622C163.906 25.622 165.532 26.0973 166.728 27.048C167.954 27.968 168.568 29.118 168.568 30.498C168.568 31.8473 168.138 33.0127 167.28 33.994C166.513 33.994 165.624 33.8253 164.612 33.488C163.6 33.1507 162.833 32.7367 162.312 32.246L163.002 28.198C162.726 28.014 162.342 27.922 161.852 27.922ZM174.753 15.64C174.753 14.628 174.661 13.9073 174.477 13.478C176.869 12.65 179.123 12.236 181.239 12.236C181.515 12.512 181.653 13.2173 181.653 14.352C181.653 16.8973 180.809 21.7733 179.123 28.98C181.852 26.7413 184.551 25.622 187.219 25.622C188.415 25.622 189.427 25.99 190.255 26.726C191.083 27.462 191.497 28.5353 191.497 29.946C191.497 32.5833 189.335 34.5 185.011 35.696C186.023 38.8853 186.912 41.0473 187.679 42.182C188.016 42.6727 188.261 42.918 188.415 42.918C188.752 42.918 189.457 42.6573 190.531 42.136L191.037 41.906L191.773 43.47C191.037 44.1447 190.009 44.8347 188.691 45.54C187.403 46.2147 186.222 46.552 185.149 46.552C182.757 46.552 181.085 44.3747 180.135 40.02C179.705 38.1493 179.445 36.4013 179.353 34.776C181.315 34.316 182.772 33.764 183.723 33.12C184.704 32.4453 185.195 31.602 185.195 30.59C185.195 29.5473 184.673 29.026 183.631 29.026C182.588 29.026 180.84 30.0687 178.387 32.154C176.853 38.6247 176.087 43.056 176.087 45.448C174.4 45.9387 172.207 46.184 169.509 46.184C169.478 45.6627 169.463 45.2027 169.463 44.804C169.463 43.4853 170.337 38.9773 172.085 31.28C173.863 23.5827 174.753 18.3693 174.753 15.64ZM207.128 39.974C207.128 41.906 206.27 43.4853 204.552 44.712C202.866 45.9387 200.934 46.552 198.756 46.552C196.579 46.552 194.846 46.092 193.558 45.172C192.301 44.252 191.672 43.4393 191.672 42.734C191.672 42.3047 192.209 41.6147 193.282 40.664C194.356 39.6827 195.26 39.0847 195.996 38.87C197.53 40.0047 198.787 41.7987 199.768 44.252C200.903 44.16 201.47 43.6233 201.47 42.642C201.47 41.2313 200.228 39.238 197.744 36.662C195.26 34.0553 194.018 31.9853 194.018 30.452C194.018 28.9187 194.708 27.738 196.088 26.91C197.468 26.0513 199.124 25.622 201.056 25.622C203.019 25.622 204.491 25.9747 205.472 26.68C206.454 27.3547 206.944 28.29 206.944 29.486C206.944 30.6513 206.009 32.2767 204.138 34.362C204.353 34.5767 204.629 34.868 204.966 35.236C205.304 35.5733 205.748 36.2327 206.3 37.214C206.852 38.1953 207.128 39.1153 207.128 39.974ZM202.712 32.752C204 31.648 204.644 30.5593 204.644 29.486C204.644 28.4127 203.908 27.876 202.436 27.876C201.731 27.876 201.148 28.0293 200.688 28.336C200.228 28.612 199.998 28.934 199.998 29.302C199.998 29.9767 200.673 30.9273 202.022 32.154L202.712 32.752ZM221.134 15.456C221.134 18.492 220.137 23.2607 218.144 29.762C217.99 30.2833 217.699 31.234 217.27 32.614C216.871 33.9633 216.564 35.006 216.35 35.742C215.522 36.018 214.786 36.156 214.142 36.156C213.528 36.156 212.976 36.1253 212.486 36.064C213.59 29.4093 214.142 23.5367 214.142 18.446L213.866 14.582C216.472 13.754 218.803 13.34 220.858 13.34C221.042 13.616 221.134 14.3213 221.134 15.456ZM210.232 45.678C209.618 45.0647 209.312 44.252 209.312 43.24C209.312 42.228 209.726 41.3387 210.554 40.572C211.412 39.8053 212.394 39.422 213.498 39.422C214.602 39.422 215.46 39.7287 216.074 40.342C216.687 40.9553 216.994 41.768 216.994 42.78C216.994 43.7613 216.549 44.6353 215.66 45.402C214.801 46.1687 213.835 46.552 212.762 46.552C211.688 46.552 210.845 46.2607 210.232 45.678Z" fill="#FCC9F1" shape-rendering="crispEdges"/>
<path d="M4.16109 46.138H3.16109V47.138H4.16109V46.138ZM5.44909 37.858L4.47202 37.645L4.47054 37.652L5.44909 37.858ZM5.49509 27.692L4.69508 28.292L4.69768 28.2954L5.49509 27.692ZM5.08109 27.14L4.08403 27.0633L4.05515 27.4388L4.28109 27.74L5.08109 27.14ZM5.12709 26.542L4.85944 25.5785L4.18381 25.7662L4.13003 26.4653L5.12709 26.542ZM13.0851 25.852L13.8794 25.2445L13.5793 24.852H13.0851V25.852ZM13.7291 28.704L12.7293 28.7262L12.7732 30.7023L14.3392 29.4963L13.7291 28.704ZM23.1131 26.772L22.3474 27.4152L22.3548 27.424L22.3624 27.4326L23.1131 26.772ZM24.3091 41.86L23.8619 40.9656L23.852 40.9705L23.8423 40.9756L24.3091 41.86ZM24.8611 41.584L25.7504 41.1267L25.2982 40.2474L24.4139 40.6896L24.8611 41.584ZM25.6891 43.194L26.3535 43.9414L26.933 43.4262L26.5784 42.7367L25.6891 43.194ZM24.5851 44.114L25.2098 44.8949L25.2098 44.8949L24.5851 44.114ZM22.0091 45.632L22.4563 46.5265L22.465 46.522L22.0091 45.632ZM16.3511 36.8L15.3797 36.5623L15.3774 36.5721L16.3511 36.8ZM13.3611 31.142L12.8496 30.2827L12.4559 30.517L12.3763 30.9682L13.3611 31.142ZM12.4411 35.282L11.4671 35.0552L11.465 35.0644L12.4411 35.282ZM10.8311 45.494L11.2025 46.4225L11.8311 46.171V45.494H10.8311ZM5.03509 45.138H4.16109V47.138H5.03509V45.138ZM5.16109 46.138C5.16109 44.8172 5.56588 42.1574 6.42764 38.064L4.47054 37.652C3.61496 41.716 3.16109 44.5761 3.16109 46.138H5.16109ZM6.42613 38.071C6.87145 36.0287 7.20699 34.4208 7.43164 33.2511C7.54386 32.6668 7.62971 32.1851 7.6879 31.8099C7.74267 31.4567 7.78309 31.1372 7.78309 30.912H5.78309C5.78309 30.9628 5.76792 31.1397 5.71152 31.5034C5.65854 31.845 5.57765 32.3005 5.46753 32.8739C5.24752 34.0195 4.91606 35.6086 4.47204 37.645L6.42613 38.071ZM7.78309 30.912C7.78309 29.6093 7.23056 28.3281 6.29249 27.0886L4.69768 28.2954C5.47695 29.3252 5.78309 30.1907 5.78309 30.912H7.78309ZM6.29509 27.092L5.88109 26.54L4.28109 27.74L4.69509 28.292L6.29509 27.092ZM6.07814 27.2167L6.12414 26.6187L4.13003 26.4653L4.08403 27.0633L6.07814 27.2167ZM5.39473 27.5055C6.9115 27.0842 9.44847 26.852 13.0851 26.852V24.852C9.42303 24.852 6.65467 25.0798 4.85944 25.5785L5.39473 27.5055ZM12.2907 26.4594C12.4799 26.7068 12.6992 27.368 12.7293 28.7262L14.7288 28.6818C14.6977 27.28 14.4876 26.0399 13.8794 25.2445L12.2907 26.4594ZM14.3392 29.4963C16.9595 27.4784 18.9913 26.622 20.4911 26.622V24.622C18.3109 24.622 15.8347 25.8202 13.1189 27.9117L14.3392 29.4963ZM20.4911 26.622C21.3339 26.622 21.9144 26.8997 22.3474 27.4152L23.8788 26.1288C23.0238 25.111 21.8562 24.622 20.4911 24.622V26.622ZM22.3624 27.4326C22.8537 27.991 23.1251 28.7113 23.1251 29.67H25.1251C25.1251 28.2981 24.7218 27.0863 23.8638 26.1114L22.3624 27.4326ZM23.1251 29.67C23.1251 30.6663 22.8039 32.5338 22.0969 35.3615L24.0372 35.8465C24.741 33.0316 25.1251 30.943 25.1251 29.67H23.1251ZM22.0969 35.3615C21.3965 38.1632 21.0091 40.1834 21.0091 41.308H23.0091C23.0091 40.47 23.327 38.6875 24.0372 35.8465L22.0969 35.3615ZM21.0091 41.308C21.0091 41.8046 21.039 42.2638 21.1328 42.6274C21.1786 42.8047 21.2599 43.0433 21.4254 43.257C21.6134 43.4999 21.9365 43.734 22.3771 43.734V41.734C22.5159 41.734 22.6538 41.7696 22.7752 41.8368C22.8908 41.9008 22.9648 41.9785 23.0068 42.0327C23.0803 42.1276 23.0849 42.1879 23.0694 42.1276C23.0405 42.0158 23.0091 41.7621 23.0091 41.308H21.0091ZM22.3771 43.734C22.6112 43.734 22.8302 43.6589 22.9332 43.6227C23.0752 43.5727 23.2367 43.5051 23.4103 43.4266C23.7595 43.2686 24.2172 43.0392 24.7758 42.7444L23.8423 40.9756C23.2969 41.2635 22.8806 41.4711 22.5859 41.6044C22.4374 41.6716 22.3345 41.7132 22.2694 41.7361C22.1654 41.7727 22.235 41.734 22.3771 41.734V43.734ZM24.7563 42.7544L25.3083 42.4784L24.4139 40.6896L23.8619 40.9656L24.7563 42.7544ZM23.9718 42.0413L24.7998 43.6513L26.5784 42.7367L25.7504 41.1267L23.9718 42.0413ZM25.0247 42.4466C24.7669 42.6758 24.4138 42.9704 23.9604 43.3331L25.2098 44.8949C25.6764 44.5216 26.0593 44.2029 26.3535 43.9414L25.0247 42.4466ZM23.9604 43.3331C23.5874 43.6315 22.8105 44.098 21.5532 44.742L22.465 46.522C23.7224 45.878 24.6628 45.3325 25.2098 44.8949L23.9604 43.3331ZM21.5619 44.7376C20.4222 45.3074 19.474 45.552 18.6971 45.552V47.552C19.8828 47.552 21.1427 47.1832 22.4563 46.5264L21.5619 44.7376ZM18.6971 45.552C17.7676 45.552 17.2432 45.2937 16.9295 44.9371C16.5943 44.5559 16.3391 43.8818 16.3391 42.734H14.3391C14.3391 44.1315 14.6436 45.3664 15.4277 46.2579C16.2334 47.1739 17.3879 47.552 18.6971 47.552V45.552ZM16.3391 42.734C16.3391 41.7929 16.6472 39.9228 17.3248 37.0279L15.3774 36.5721C14.7056 39.4425 14.3391 41.5285 14.3391 42.734H16.3391ZM17.3224 37.0377C17.6772 35.5878 17.9461 34.3847 18.127 33.4332C18.304 32.5018 18.4091 31.7503 18.4091 31.234H16.4091C16.4091 31.5457 16.3378 32.1359 16.1622 33.0598C15.9904 33.9636 15.7303 35.1295 15.3797 36.5623L17.3224 37.0377ZM18.4091 31.234C18.4091 30.7474 18.3383 30.212 18.0598 29.7697C17.7324 29.2497 17.2042 28.992 16.6271 28.992V30.992C16.6234 30.992 16.5714 30.9905 16.5013 30.9534C16.4285 30.9148 16.3853 30.8638 16.3674 30.8353C16.3536 30.8135 16.3665 30.8242 16.3815 30.896C16.3964 30.9669 16.4091 31.0764 16.4091 31.234H18.4091ZM16.6271 28.992C15.4732 28.992 14.1985 29.4798 12.8496 30.2827L13.8726 32.0013C15.0997 31.2709 16.0023 30.992 16.6271 30.992V28.992ZM12.3763 30.9682C12.2901 31.4565 11.9911 32.8052 11.4671 35.0552L13.415 35.5088C13.9337 33.2814 14.248 31.8702 14.3459 31.3158L12.3763 30.9682ZM11.465 35.0644C10.3923 39.8764 9.83109 43.3781 9.83109 45.494H11.8311C11.8311 43.6232 12.3432 40.3169 13.4171 35.4996L11.465 35.0644ZM10.4597 44.5655C9.584 44.9158 7.82882 45.138 5.03509 45.138V47.138C7.82269 47.138 9.93151 46.9309 11.2025 46.4225L10.4597 44.5655ZM30.4185 28.98L31.111 29.7014L31.1112 29.7012L30.4185 28.98ZM42.7925 26.956L43.3991 26.161L43.3991 26.161L42.7925 26.956ZM43.3905 34.27L42.5934 33.6661L42.5875 33.6739L42.5817 33.6818L43.3905 34.27ZM40.6765 36.616L41.1186 37.5129L41.1262 37.5092L41.1338 37.5053L40.6765 36.616ZM34.6965 38.64L34.8205 39.6323L34.8339 39.6306L34.8473 39.6286L34.6965 38.64ZM33.5925 38.778L33.4684 37.7857L32.5246 37.9037L32.5952 38.8523L33.5925 38.778ZM39.4805 42.55L39.0743 41.6362L39.0743 41.6362L39.4805 42.55ZM41.4125 41.446L40.7878 40.6651L40.7878 40.6651L41.4125 41.446ZM42.1025 40.894L42.9025 40.294L42.2834 39.4686L41.4778 40.1131L42.1025 40.894ZM43.2065 42.366L44.0152 42.9542L44.4496 42.3569L44.0065 41.766L43.2065 42.366ZM41.7345 43.7L41.1345 42.9L41.1345 42.9L41.7345 43.7ZM39.6645 45.08L40.1475 45.9556L40.1541 45.952L40.1606 45.9482L39.6645 45.08ZM28.8085 44.298L28.0338 44.9304L28.0338 44.9304L28.8085 44.298ZM33.5465 36.524H32.5465V37.7159L33.7202 37.5088L33.5465 36.524ZM37.2725 34.546L36.5226 33.8844L36.5226 33.8844L37.2725 34.546ZM34.4665 31.004L33.5148 30.6966L33.512 30.7057L34.4665 31.004ZM27.9685 38.042C27.9685 34.4217 29.0465 31.6833 31.111 29.7014L29.7259 28.2586C27.1905 30.6927 25.9685 33.9957 25.9685 38.042H27.9685ZM31.1112 29.7012C33.2755 27.6223 35.671 26.622 38.3305 26.622V24.622C35.1019 24.622 32.2228 25.8603 29.7257 28.2588L31.1112 29.7012ZM38.3305 26.622C39.973 26.622 41.2323 27.0233 42.1858 27.7509L43.3991 26.161C42.022 25.1101 40.3066 24.622 38.3305 24.622V26.622ZM42.1858 27.7509C43.096 28.4456 43.5405 29.344 43.5405 30.544H45.5405C45.5405 28.7387 44.8195 27.245 43.3991 26.161L42.1858 27.7509ZM43.5405 30.544C43.5405 31.8341 43.2081 32.8547 42.5934 33.6661L44.1876 34.8739C45.1062 33.6613 45.5405 32.1979 45.5405 30.544H43.5405ZM42.5817 33.6818C41.9342 34.5722 41.1482 35.2489 40.2191 35.7267L41.1338 37.5053C42.3514 36.8791 43.3747 35.9918 44.1992 34.8582L42.5817 33.6818ZM40.2343 35.7191C38.1208 36.7609 36.2269 37.395 34.5457 37.6514L34.8473 39.6286C36.7847 39.333 38.8775 38.6177 41.1186 37.5129L40.2343 35.7191ZM34.5724 37.6477L33.4684 37.7857L33.7165 39.7703L34.8205 39.6323L34.5724 37.6477ZM32.5952 38.8523C32.71 40.3934 33.0909 41.7092 33.8654 42.6547C34.6758 43.6441 35.8125 44.102 37.1345 44.102V42.102C36.3098 42.102 35.7828 41.8393 35.4126 41.3873C35.0063 40.8914 34.6896 40.0453 34.5897 38.7037L32.5952 38.8523ZM37.1345 44.102C38.0388 44.102 38.9595 43.8758 39.8866 43.4638L39.0743 41.6362C38.3454 41.9602 37.7021 42.102 37.1345 42.102V44.102ZM39.8866 43.4638C40.7557 43.0775 41.4846 42.6689 42.0372 42.2269L40.7878 40.6651C40.4203 40.9591 39.8612 41.2865 39.0743 41.6362L39.8866 43.4638ZM42.0372 42.2269L42.7272 41.6749L41.4778 40.1131L40.7878 40.6651L42.0372 42.2269ZM41.3025 41.494L42.4065 42.966L44.0065 41.766L42.9025 40.294L41.3025 41.494ZM42.3977 41.7778C42.2474 41.9845 41.8631 42.3535 41.1345 42.9L42.3345 44.5C43.0779 43.9425 43.6749 43.4221 44.0152 42.9542L42.3977 41.7778ZM41.1345 42.9C40.4241 43.4328 39.769 43.8685 39.1683 44.2118L40.1606 45.9482C40.8479 45.5555 41.5728 45.0712 42.3345 44.5L41.1345 42.9ZM39.1814 44.2044C37.5569 45.1007 35.7768 45.552 33.8225 45.552V47.552C36.1001 47.552 38.2147 47.022 40.1475 45.9556L39.1814 44.2044ZM33.8225 45.552C31.9757 45.552 30.601 44.9126 29.5831 43.6656L28.0338 44.9304C29.4692 46.6887 31.4372 47.552 33.8225 47.552V45.552ZM29.5831 43.6656C28.5485 42.3983 27.9685 40.5654 27.9685 38.042H25.9685C25.9685 40.8546 26.615 43.1924 28.0338 44.9304L29.5831 43.6656ZM33.7202 37.5088C35.474 37.1993 36.9315 36.4439 38.0223 35.2076L36.5226 33.8844C35.7735 34.7334 34.747 35.2967 33.3727 35.5392L33.7202 37.5088ZM38.0223 35.2076C39.1332 33.9486 39.6525 32.3487 39.6525 30.498H37.6525C37.6525 31.9593 37.2517 33.0581 36.5226 33.8844L38.0223 35.2076ZM39.6525 30.498C39.6525 29.6039 39.5258 28.7682 39.1448 28.1252C38.715 27.4001 38.0158 27.014 37.1805 27.014V29.014C37.2821 29.014 37.3226 29.0343 37.3342 29.0408C37.3449 29.0468 37.3783 29.0673 37.4242 29.1448C37.5338 29.3298 37.6525 29.7361 37.6525 30.498H39.6525ZM37.1805 27.014C35.2935 27.014 34.1747 28.6542 33.5149 30.6966L35.418 31.3114C36.0462 29.3671 36.7368 29.014 37.1805 29.014V27.014ZM33.512 30.7057C32.8742 32.7465 32.5465 34.6879 32.5465 36.524H34.5465C34.5465 34.9255 34.832 33.1868 35.4209 31.3023L33.512 30.7057ZM61.7175 42.044L61.2703 41.1496L61.2599 41.1548L61.2496 41.1602L61.7175 42.044ZM62.1775 41.814L63.0668 41.3567L62.6146 40.4774L61.7303 40.9196L62.1775 41.814ZM63.0055 43.424L63.7126 44.1311L64.2284 43.6153L63.8948 42.9667L63.0055 43.424ZM62.0395 44.298L62.6855 45.0614L62.6855 45.0614L62.0395 44.298ZM59.6935 45.678L59.2463 44.7835L59.2367 44.7884L59.6935 45.678ZM53.9435 45.77L53.2745 46.5133L53.294 46.5308L53.3143 46.5472L53.9435 45.77ZM52.4255 43.102L51.4742 43.4102L51.4745 43.4111L52.4255 43.102ZM51.3675 39.836L52.3188 39.5278L51.793 37.9046L50.6337 39.1566L51.3675 39.836ZM46.2155 46.506V47.506H46.7925L47.0812 47.0065L46.2155 46.506ZM44.6055 46.046L44.2582 46.9838L44.2692 46.9877L44.6055 46.046ZM42.7655 45.264L41.8962 44.7697L41.3904 45.6593L42.2914 46.1445L42.7655 45.264ZM50.4475 36.938L51.1332 37.6659L51.5982 37.2278L51.3962 36.6218L50.4475 36.938ZM47.8715 30.176L46.9771 30.6232L46.9771 30.6232L47.8715 30.176ZM45.6635 27.554L44.6934 27.3115L44.5645 27.8268L44.9195 28.2221L45.6635 27.554ZM45.8015 27.002L45.5931 26.024L44.9827 26.154L44.8314 26.7595L45.8015 27.002ZM48.6075 26.404L48.4583 25.4152L48.4285 25.4197L48.3991 25.426L48.6075 26.404ZM52.9315 25.944L53.5607 25.1668L53.264 24.9266L52.8828 24.9452L52.9315 25.944ZM54.4495 28.842L53.4819 29.0944L53.4844 29.1042L53.4872 29.114L54.4495 28.842ZM55.3695 32.062L54.4095 32.342L54.9077 34.0501L56.1078 32.7365L55.3695 32.062ZM59.8315 25.806L59.9729 24.816L59.2073 24.7067L58.9089 25.4202L59.8315 25.806ZM62.3615 26.772L61.8287 27.6182L61.8519 27.6328L61.8759 27.6462L62.3615 26.772ZM62.7755 27.002L63.659 27.4705L64.1184 26.6041L63.2612 26.1278L62.7755 27.002ZM56.2435 34.96L55.5364 34.2529L55.1187 34.6706L55.2829 35.2381L56.2435 34.96ZM57.1635 37.858L58.1078 37.5288L58.1044 37.5193L57.1635 37.858ZM59.8775 43.872C60.1065 43.872 60.3189 43.8013 60.4231 43.7652C60.5625 43.717 60.7192 43.6519 60.8859 43.5769C61.2212 43.426 61.657 43.2076 62.1854 42.9278L61.2496 41.1602C60.7354 41.4324 60.3431 41.628 60.0651 41.7531C59.9251 41.8161 59.8289 41.8545 59.7689 41.8753C59.6738 41.9082 59.7406 41.872 59.8775 41.872V43.872ZM62.1647 42.9384L62.6247 42.7084L61.7303 40.9196L61.2703 41.1496L62.1647 42.9384ZM61.2882 42.2713L62.1162 43.8813L63.8948 42.9667L63.0668 41.3567L61.2882 42.2713ZM62.2984 42.7169C62.0798 42.9355 61.7805 43.2072 61.3936 43.5346L62.6855 45.0614C63.0959 44.7141 63.4406 44.4032 63.7126 44.1311L62.2984 42.7169ZM61.3936 43.5346C61.097 43.7856 60.4151 44.1992 59.2463 44.7836L60.1407 46.5724C61.3026 45.9915 62.1847 45.4851 62.6855 45.0614L61.3936 43.5346ZM59.2367 44.7884C58.2123 45.3145 57.2797 45.552 56.4275 45.552V47.552C57.6607 47.552 58.9054 47.2068 60.1503 46.5676L59.2367 44.7884ZM56.4275 45.552C55.5922 45.552 55.0018 45.3402 54.5727 44.9928L53.3143 46.5472C54.1732 47.2425 55.2388 47.552 56.4275 47.552V45.552ZM54.6125 45.0267C54.1833 44.6405 53.7488 43.9382 53.3765 42.7929L51.4745 43.4111C51.8996 44.7191 52.477 45.7955 53.2745 46.5133L54.6125 45.0267ZM53.3768 42.7938L52.3188 39.5278L50.4162 40.1442L51.4742 43.4102L53.3768 42.7938ZM50.6337 39.1566C48.3054 41.6712 46.535 43.9553 45.3498 46.0055L47.0812 47.0065C48.1653 45.1313 49.8296 42.9688 52.1013 40.5154L50.6337 39.1566ZM46.2155 45.506C46.2618 45.506 46.2649 45.5119 46.1941 45.4974C46.1338 45.4851 46.0462 45.4636 45.9267 45.4295C45.6879 45.3612 45.3618 45.2542 44.9418 45.1043L44.2692 46.9877C44.7079 47.1444 45.0794 47.2674 45.3773 47.3525C45.6367 47.4266 45.9502 47.506 46.2155 47.506V45.506ZM44.9528 45.1083C44.1357 44.8056 43.5752 44.5642 43.2396 44.3835L42.2914 46.1445C42.7531 46.3931 43.4193 46.6731 44.2582 46.9837L44.9528 45.1083ZM43.6348 45.7583C44.0197 45.0815 44.8158 44.0665 46.088 42.6876C47.3464 41.3236 49.0262 39.6507 51.1332 37.6659L49.7618 36.2101C47.6368 38.2119 45.9202 39.92 44.618 41.3314C43.3296 42.7279 42.4007 43.8825 41.8962 44.7697L43.6348 45.7583ZM51.3962 36.6218C50.3225 33.4007 49.4448 31.0865 48.7659 29.7288L46.9771 30.6232C47.5862 31.8415 48.4259 34.0353 49.4988 37.2542L51.3962 36.6218ZM48.7659 29.7288C48.6872 29.5712 48.5622 29.4013 48.4579 29.2655C48.3375 29.1085 48.181 28.9163 47.9924 28.6924C47.6143 28.2434 47.0848 27.6401 46.4076 26.8859L44.9195 28.2221C45.5915 28.9706 46.1047 29.5556 46.4626 29.9806C46.642 30.1937 46.7768 30.3599 46.8711 30.4828C46.9815 30.6267 46.9945 30.6581 46.9771 30.6232L48.7659 29.7288ZM46.6337 27.7965L46.7717 27.2445L44.8314 26.7595L44.6934 27.3115L46.6337 27.7965ZM46.0099 27.98L48.8159 27.382L48.3991 25.426L45.5931 26.024L46.0099 27.98ZM48.7568 27.3928C50.3582 27.1511 51.7649 27.0021 52.9802 26.9428L52.8828 24.9452C51.5834 25.0086 50.1075 25.1663 48.4583 25.4152L48.7568 27.3928ZM52.3023 26.7212C52.6956 27.0396 53.1315 27.7512 53.4819 29.0944L55.4171 28.5896C55.0315 27.1115 54.4554 25.8911 53.5607 25.1668L52.3023 26.7212ZM53.4872 29.114C53.8861 30.5254 54.1936 31.6019 54.4095 32.342L56.3295 31.782C56.116 31.0501 55.8103 29.98 55.4118 28.57L53.4872 29.114ZM56.1078 32.7365C58.4009 30.2265 59.9815 28.0392 60.7541 26.1918L58.9089 25.4202C58.2708 26.9461 56.8768 28.9295 54.6312 31.3875L56.1078 32.7365ZM59.6901 26.7959C60.3929 26.8963 61.1044 27.1622 61.8287 27.6182L62.8943 25.9258C61.9626 25.3392 60.9875 24.961 59.9729 24.816L59.6901 26.7959ZM61.8759 27.6462L62.2899 27.8762L63.2612 26.1278L62.8472 25.8978L61.8759 27.6462ZM61.892 26.5335C60.892 28.4194 58.804 30.9853 55.5364 34.2529L56.9506 35.6671C60.2457 32.3721 62.5124 29.6326 63.659 27.4705L61.892 26.5335ZM55.2829 35.2381C55.6236 36.415 55.9369 37.403 56.2226 38.1967L58.1044 37.5193C57.8382 36.7797 57.538 35.8357 57.2041 34.6819L55.2829 35.2381ZM56.2192 38.1872C56.8073 39.8739 57.3456 41.1875 57.8366 42.0945C58.0799 42.5441 58.3363 42.9406 58.6121 43.2383C58.8594 43.5052 59.2871 43.872 59.8775 43.872V41.872C60.1459 41.872 60.219 42.0299 60.0791 41.8789C59.9678 41.7588 59.8044 41.5286 59.5954 41.1425C59.1817 40.3782 58.6851 39.1848 58.1078 37.5288L56.2192 38.1872ZM77.8923 26.174L78.8891 26.2537L78.9755 25.174H77.8923V26.174ZM77.1103 28.842L77.0056 29.8365L77.7224 29.912L78.0206 29.2558L77.1103 28.842ZM72.9703 28.658V27.658H72.1555L71.9909 28.456L72.9703 28.658ZM74.4883 41.63L75.3662 41.1511L74.9178 40.3292L74.0681 40.7225L74.4883 41.63ZM75.3163 43.148L75.9556 43.9169L76.588 43.3911L76.1942 42.6691L75.3163 43.148ZM65.0583 45.54L64.3512 46.2471L64.359 46.255L64.367 46.2626L65.0583 45.54ZM64.4143 39.054L63.4329 38.862L63.4308 38.8723L63.429 38.8827L64.4143 39.054ZM65.5183 33.902L66.4934 34.1236L66.4941 34.1205L65.5183 33.902ZM66.5303 28.934L67.516 29.1023L67.7327 27.8332L66.4494 27.9373L66.5303 28.934ZM64.0003 29.21L63.0139 29.3744L63.1783 30.3608L64.1647 30.1964L64.0003 29.21ZM64.0463 26.174V25.174H63.2507L63.0719 25.9491L64.0463 26.174ZM66.9443 26.174V27.174H67.807L67.9335 26.3205L66.9443 26.174ZM67.3123 21.482H68.3123V21.4659L68.3117 21.4498L67.3123 21.482ZM67.2663 20.056H66.2663V20.0721L66.2668 20.0882L67.2663 20.056ZM67.2663 19.918L66.9391 18.973L66.2663 19.2059V19.918H67.2663ZM74.0283 18.676L75.0088 18.4799L74.8481 17.676H74.0283V18.676ZM73.4303 26.174L72.4506 25.9733L72.2047 27.174H73.4303V26.174ZM76.8954 26.0943C76.8465 26.7063 76.6314 27.4788 76.1999 28.4282L78.0206 29.2558C78.5091 28.1812 78.8154 27.175 78.8891 26.2537L76.8954 26.0943ZM77.2149 27.8475C76.019 27.7216 74.8799 27.658 73.7983 27.658V29.658C74.802 29.658 75.8708 29.7171 77.0056 29.8365L77.2149 27.8475ZM73.7983 27.658H72.9703V29.658H73.7983V27.658ZM71.9909 28.456C71.2843 31.8814 70.7524 34.6711 70.3967 36.8208C70.0447 38.9481 69.8543 40.5104 69.8543 41.446H71.8543C71.8543 40.695 72.0165 39.2826 72.3698 37.1472C72.7195 35.0343 73.2456 32.2733 73.9496 28.86L71.9909 28.456ZM69.8543 41.446C69.8543 41.9296 69.8999 42.4221 70.0682 42.8289C70.1564 43.0419 70.2995 43.2837 70.5374 43.4754C70.7914 43.68 71.0955 43.78 71.4063 43.78V41.78C71.533 41.78 71.6761 41.8245 71.7921 41.9179C71.892 41.9984 71.9201 42.0734 71.9163 42.0641C71.9129 42.056 71.895 42.0061 71.8794 41.893C71.8642 41.7832 71.8543 41.6362 71.8543 41.446H69.8543ZM71.4063 43.78C71.6387 43.78 71.8787 43.7287 72.0827 43.6738C72.3022 43.6149 72.5517 43.5315 72.8253 43.4294C73.3733 43.2249 74.0702 42.9255 74.9084 42.5375L74.0681 40.7225C73.2503 41.1012 72.6055 41.3767 72.1262 41.5556C71.8862 41.6451 71.7006 41.7056 71.5635 41.7424C71.4111 41.7834 71.3732 41.78 71.4063 41.78V43.78ZM73.6104 42.1089L74.4384 43.6269L76.1942 42.6691L75.3662 41.1511L73.6104 42.1089ZM74.6769 42.3791C72.0373 44.5738 69.7284 45.552 67.7263 45.552V47.552C70.3854 47.552 73.1365 46.2609 75.9556 43.9169L74.6769 42.3791ZM67.7263 45.552C66.8824 45.552 66.2494 45.2956 65.7495 44.8174L64.367 46.2626C65.2778 47.1338 66.4234 47.552 67.7263 47.552V45.552ZM65.7654 44.8329C65.3079 44.3754 65.0463 43.7559 65.0463 42.872H63.0463C63.0463 44.1961 63.4593 45.3553 64.3512 46.2471L65.7654 44.8329ZM65.0463 42.872C65.0463 41.8074 65.1616 40.5934 65.3995 39.2253L63.429 38.8827C63.1763 40.336 63.0463 41.6673 63.0463 42.872H65.0463ZM65.3957 39.246C65.6691 37.8485 66.0347 36.1417 66.4934 34.1236L64.5431 33.6804C64.0818 35.7103 63.7114 37.4381 63.4329 38.862L65.3957 39.246ZM66.4941 34.1205C66.9558 32.0583 67.2972 30.3837 67.516 29.1023L65.5445 28.7657C65.334 29.999 65.0007 31.6363 64.5424 33.6835L66.4941 34.1205ZM66.4494 27.9373C65.3091 28.0297 64.4312 28.1244 63.8359 28.2236L64.1647 30.1964C64.6733 30.1116 65.482 30.0223 66.6111 29.9307L66.4494 27.9373ZM64.9867 29.0456C64.9383 28.7553 64.9083 28.3265 64.9083 27.738H62.9083C62.9083 28.3762 62.9396 28.9287 63.0139 29.3744L64.9867 29.0456ZM64.9083 27.738C64.9083 27.1318 64.9525 26.6943 65.0206 26.3989L63.0719 25.9491C62.956 26.451 62.9083 27.0562 62.9083 27.738H64.9083ZM64.0463 27.174H66.9443V25.174H64.0463V27.174ZM67.9335 26.3205C68.185 24.6225 68.3123 23.0092 68.3123 21.482H66.3123C66.3123 22.8988 66.1942 24.4135 65.9551 26.0275L67.9335 26.3205ZM68.3117 21.4498L68.2657 20.0238L66.2668 20.0882L66.3128 21.5142L68.3117 21.4498ZM68.2663 20.056V19.918H66.2663V20.056H68.2663ZM67.5934 20.863C69.9002 20.0645 72.043 19.676 74.0283 19.676V17.676C71.7815 17.676 69.4163 18.1155 66.9391 18.973L67.5934 20.863ZM73.0477 18.8721C73.1529 19.3984 73.2123 20.0942 73.2123 20.976H75.2123C75.2123 20.0178 75.1489 19.1802 75.0088 18.4799L73.0477 18.8721ZM73.2123 20.976C73.2123 21.7793 72.9745 23.4155 72.4506 25.9733L74.4099 26.3747C74.9287 23.8418 75.2123 22.0127 75.2123 20.976H73.2123ZM73.4303 27.174H77.8923V25.174H73.4303V27.174ZM79.2942 27.784L78.453 28.3248L78.4681 28.3483L78.4846 28.371L79.2942 27.784ZM78.8802 27.14L77.8831 27.0633L77.8574 27.3982L78.039 27.6808L78.8802 27.14ZM78.9262 26.542L78.6717 25.5749L77.9837 25.756L77.9291 26.4653L78.9262 26.542ZM86.8382 25.852L87.5939 25.1971L87.2948 24.852H86.8382V25.852ZM86.2862 37.076L85.3001 36.9094L85.2991 36.9159L86.2862 37.076ZM84.4002 46.874L83.4327 46.621L83.4309 46.628L83.4292 46.635L84.4002 46.874ZM82.8362 51.566L81.9369 51.1285L81.9324 51.1379L82.8362 51.566ZM80.2142 54.786L79.5799 54.0129L79.5691 54.0218L79.5585 54.031L80.2142 54.786ZM72.7622 55.43L72.3054 56.3196L72.3054 56.3196L72.7622 55.43ZM70.1862 53.728L69.4602 54.4157L69.4788 54.4354L69.4984 54.454L70.1862 53.728ZM69.3582 52.854L68.5341 52.2875L68.0757 52.9543L68.6322 53.5417L69.3582 52.854ZM70.3702 51.382L70.8795 50.5214L70.0755 50.0456L69.5461 50.8155L70.3702 51.382ZM76.8562 50.278L75.9859 49.7854L75.9859 49.7854L76.8562 50.278ZM79.4322 40.618L80.4187 40.7814L80.4189 40.7804L79.4322 40.618ZM82.2842 20.838L81.5771 21.5451L81.5861 21.5542L81.5954 21.563L82.2842 20.838ZM82.6062 15.732L81.9402 14.9861L81.9334 14.9921L81.9268 14.9982L82.6062 15.732ZM88.1262 15.502L88.8333 14.7949L88.8333 14.7949L88.1262 15.502ZM87.7122 20.562L87.0592 19.8046L87.0527 19.8103L87.0462 19.8161L87.7122 20.562ZM81.6282 30.682C81.6282 29.6311 81.0027 28.4369 80.1038 27.197L78.4846 28.371C79.3644 29.5845 79.6282 30.3222 79.6282 30.682H81.6282ZM80.1354 27.2432L79.7214 26.5992L78.039 27.6808L78.453 28.3248L80.1354 27.2432ZM79.8772 27.2167L79.9232 26.6187L77.9291 26.4653L77.8831 27.0633L79.8772 27.2167ZM79.1807 27.5091C80.8002 27.0829 83.3324 26.852 86.8382 26.852V24.852C83.2907 24.852 80.5482 25.0811 78.6717 25.5749L79.1807 27.5091ZM86.0825 26.5069C86.2245 26.6708 86.4362 27.1966 86.4362 28.428H88.4362C88.4362 27.1447 88.2492 25.9532 87.5939 25.1971L86.0825 26.5069ZM86.4362 28.428C86.4362 29.5527 86.0715 32.3433 85.3001 36.9094L87.2722 37.2426C88.0342 32.7314 88.4362 29.7566 88.4362 28.428H86.4362ZM85.2991 36.9159C84.5635 41.4517 83.9411 44.6772 83.4327 46.621L85.3676 47.127C85.9019 45.0841 86.5368 41.7776 87.2733 37.2361L85.2991 36.9159ZM83.4292 46.635C82.9463 48.5967 82.445 50.0842 81.9369 51.1285L83.7354 52.0035C84.3314 50.7785 84.8727 49.138 85.3712 47.113L83.4292 46.635ZM81.9324 51.1379C81.455 52.1458 80.6842 53.1068 79.5799 54.0129L80.8485 55.5591C82.1362 54.5025 83.1133 53.3169 83.7399 51.9941L81.9324 51.1379ZM79.5585 54.031C78.5423 54.9134 77.5258 55.304 76.4882 55.304V57.304C78.0879 57.304 79.5554 56.6826 80.8699 55.541L79.5585 54.031ZM76.4882 55.304C75.2883 55.304 74.2041 55.0463 73.219 54.5404L72.3054 56.3196C73.5896 56.979 74.9894 57.304 76.4882 57.304V55.304ZM73.219 54.5404C72.1253 53.9788 71.3596 53.4621 70.8739 53.002L69.4984 54.454C70.1781 55.0979 71.1297 55.7159 72.3054 56.3196L73.219 54.5404ZM70.9121 53.0403L70.0841 52.1663L68.6322 53.5417L69.4602 54.4157L70.9121 53.0403ZM70.1822 53.4205L71.1942 51.9485L69.5461 50.8155L68.5341 52.2875L70.1822 53.4205ZM69.8609 52.2426C70.639 52.7031 71.3432 53.0638 71.9675 53.3119C72.5794 53.5549 73.1787 53.716 73.7282 53.716V51.716C73.5417 51.716 73.2133 51.6547 72.7059 51.4531C72.2109 51.2565 71.604 50.9502 70.8795 50.5214L69.8609 52.2426ZM73.7282 53.716C75.4365 53.716 76.7424 52.5091 77.7264 50.7706L75.9859 49.7854C75.13 51.2976 74.3505 51.716 73.7282 51.716V53.716ZM77.7264 50.7706C78.7451 48.9709 79.6236 45.5828 80.4187 40.7814L78.4456 40.4546C77.6461 45.2825 76.8072 48.3344 75.9859 49.7854L77.7264 50.7706ZM80.4189 40.7804C81.2148 35.9437 81.6282 32.5542 81.6282 30.682H79.6282C79.6282 32.3671 79.2442 35.6017 78.4455 40.4556L80.4189 40.7804ZM82.9913 20.1309C82.5967 19.7364 82.3642 19.1945 82.3642 18.4H80.3642C80.3642 19.6295 80.7449 20.713 81.5771 21.5451L82.9913 20.1309ZM82.3642 18.4C82.3642 17.7002 82.6359 17.0673 83.2856 16.4658L81.9268 14.9982C80.9204 15.93 80.3642 17.0758 80.3642 18.4H82.3642ZM83.2722 16.4779C83.9562 15.8672 84.7031 15.582 85.5502 15.582V13.582C84.1892 13.582 82.9735 14.0634 81.9402 14.9861L83.2722 16.4779ZM85.5502 15.582C86.4649 15.582 87.0409 15.8309 87.4191 16.2091L88.8333 14.7949C87.9848 13.9464 86.8434 13.582 85.5502 13.582V15.582ZM87.4191 16.2091C87.8136 16.6036 88.0462 17.1455 88.0462 17.94H90.0462C90.0462 16.7105 89.6654 15.627 88.8333 14.7949L87.4191 16.2091ZM88.0462 17.94C88.0462 18.573 87.7758 19.1869 87.0592 19.8046L88.3651 21.3194C89.4273 20.4038 90.0462 19.2697 90.0462 17.94H88.0462ZM87.0462 19.8161C86.3563 20.432 85.6231 20.712 84.8142 20.712V22.712C86.1519 22.712 87.3507 22.2253 88.3782 21.3079L87.0462 19.8161ZM84.8142 20.712C83.9253 20.712 83.3542 20.4752 82.9729 20.113L81.5954 21.563C82.4409 22.3662 83.5563 22.712 84.8142 22.712V20.712ZM101.322 44.712L100.74 43.8982L100.734 43.9033L101.322 44.712ZM90.3277 45.172L89.7372 45.9791L89.7465 45.9857L90.3277 45.172ZM90.0517 40.664L90.7147 41.4126L90.7207 41.4074L90.7265 41.402L90.0517 40.664ZM92.7657 38.87L93.3606 38.0662L92.9619 37.7711L92.4857 37.91L92.7657 38.87ZM96.5377 44.252L95.6092 44.6234L95.8832 45.3083L96.6185 45.2487L96.5377 44.252ZM94.5137 36.662L93.7898 37.3519L93.7939 37.3561L94.5137 36.662ZM92.8577 26.91L93.3722 27.7675L93.3791 27.7633L93.386 27.7591L92.8577 26.91ZM102.242 26.68L101.658 27.492L101.667 27.4981L101.675 27.504L102.242 26.68ZM100.908 34.362L100.163 33.6942L99.5308 34.3993L100.201 35.0691L100.908 34.362ZM101.736 35.236L100.999 35.9117L101.013 35.9277L101.029 35.9431L101.736 35.236ZM103.07 37.214L103.941 36.7237L103.941 36.7237L103.07 37.214ZM99.4817 32.752L98.8268 33.5077L99.4781 34.0722L100.133 33.5113L99.4817 32.752ZM97.4577 28.336L97.9722 29.1935L97.9926 29.1812L98.0124 29.168L97.4577 28.336ZM98.7917 32.154L98.119 32.8939L98.1278 32.9019L98.1368 32.9097L98.7917 32.154ZM102.898 39.974C102.898 41.5497 102.223 42.8391 100.74 43.8983L101.903 45.5257C103.855 44.1316 104.898 42.2623 104.898 39.974H102.898ZM100.734 43.9033C99.2256 44.9999 97.5016 45.552 95.5257 45.552V47.552C97.9045 47.552 100.044 46.8774 101.91 45.5207L100.734 43.9033ZM95.5257 45.552C93.4804 45.552 91.9743 45.1192 90.9089 44.3583L89.7465 45.9857C91.2572 47.0648 93.2164 47.552 95.5257 47.552V45.552ZM90.9182 44.365C90.3305 43.9349 89.9397 43.5651 89.7042 43.2606C89.4656 42.9523 89.4417 42.7842 89.4417 42.734H87.4417C87.4417 43.3892 87.7321 43.9801 88.1223 44.4844C88.5154 44.9925 89.0676 45.4891 89.7372 45.979L90.9182 44.365ZM89.4417 42.734C89.4417 42.8778 89.384 42.8293 89.6336 42.5084C89.8478 42.233 90.199 41.8694 90.7147 41.4126L89.3887 39.9154C88.8311 40.4093 88.3773 40.866 88.0549 41.2806C87.7678 41.6497 87.4417 42.1609 87.4417 42.734H89.4417ZM90.7265 41.402C91.7707 40.4473 92.5363 39.9786 93.0457 39.83L92.4857 37.91C91.5231 38.1908 90.4794 38.918 89.3769 39.926L90.7265 41.402ZM92.1709 39.6738C93.5081 40.6634 94.6713 42.2787 95.6092 44.6234L97.4662 43.8806C96.4414 41.3187 95.09 39.3459 93.3606 38.0662L92.1709 39.6738ZM96.6185 45.2487C97.3122 45.1925 97.9914 44.9894 98.5014 44.507C99.0334 44.0037 99.2397 43.3325 99.2397 42.642H97.2397C97.2397 42.9328 97.1624 43.0206 97.127 43.054C97.0697 43.1082 96.8979 43.2195 96.4569 43.2553L96.6185 45.2487ZM99.2397 42.642C99.2397 41.6633 98.8181 40.6213 98.1569 39.5602C97.485 38.4817 96.5017 37.283 95.2336 35.9679L93.7939 37.3561C95.0097 38.617 95.8894 39.7029 96.4595 40.6178C97.0403 41.5501 97.2397 42.21 97.2397 42.642H99.2397ZM95.2376 35.9721C94.0243 34.6988 93.1462 33.5891 92.5767 32.64C92.0002 31.6791 91.7877 30.9616 91.7877 30.452H89.7877C89.7877 31.4757 90.1963 32.5599 90.8617 33.669C91.5342 34.7899 92.5192 36.0185 93.7898 37.3519L95.2376 35.9721ZM91.7877 30.452C91.7877 29.2907 92.2752 28.4257 93.3722 27.7675L92.3432 26.0525C90.6802 27.0503 89.7877 28.5467 89.7877 30.452H91.7877ZM93.386 27.7591C94.5797 27.0163 96.0448 26.622 97.8257 26.622V24.622C95.7426 24.622 93.8957 25.0864 92.3294 26.0609L93.386 27.7591ZM97.8257 26.622C99.6986 26.622 100.923 26.9639 101.658 27.492L102.825 25.868C101.597 24.9854 99.8781 24.622 97.8257 24.622V26.622ZM101.675 27.504C102.384 27.9912 102.714 28.6176 102.714 29.486H104.714C104.714 27.9624 104.062 26.7181 102.808 25.856L101.675 27.504ZM102.714 29.486C102.714 29.8177 102.574 30.3361 102.145 31.0802C101.725 31.8107 101.073 32.6807 100.163 33.6942L101.652 35.0298C102.614 33.958 103.364 32.9726 103.879 32.0778C104.386 31.1965 104.714 30.3196 104.714 29.486H102.714ZM100.201 35.0691C100.401 35.2691 100.666 35.5486 100.999 35.9117L102.473 34.5603C102.131 34.1874 101.844 33.8842 101.615 33.6549L100.201 35.0691ZM101.029 35.9431C101.259 36.1738 101.647 36.7241 102.198 37.7043L103.941 36.7237C103.389 35.7413 102.887 34.9728 102.443 34.5289L101.029 35.9431ZM102.198 37.7043C102.691 38.5811 102.898 39.3324 102.898 39.974H104.898C104.898 38.8983 104.552 37.8096 103.941 36.7237L102.198 37.7043ZM100.133 33.5113C101.515 32.3266 102.414 30.9854 102.414 29.486H100.414C100.414 30.1333 100.025 30.9694 98.8309 31.9927L100.133 33.5113ZM102.414 29.486C102.414 28.6946 102.125 27.9622 101.451 27.4705C100.835 27.0216 100.034 26.876 99.2057 26.876V28.876C99.8499 28.876 100.152 28.9987 100.273 29.0865C100.334 29.1314 100.414 29.2041 100.414 29.486H102.414ZM99.2057 26.876C98.3571 26.876 97.5672 27.0612 96.903 27.504L98.0124 29.168C98.2682 28.9975 98.6436 28.876 99.2057 28.876V26.876ZM96.9432 27.4785C96.3326 27.8449 95.7677 28.437 95.7677 29.302H97.7677C97.7677 29.3162 97.7652 29.3339 97.7595 29.3509C97.7541 29.3671 97.7493 29.3722 97.7539 29.3657C97.7662 29.3485 97.8204 29.2846 97.9722 29.1935L96.9432 27.4785ZM95.7677 29.302C95.7677 29.9495 96.0786 30.5649 96.4582 31.0997C96.8537 31.657 97.4173 32.256 98.119 32.8939L99.4644 31.4141C98.8167 30.8253 98.3684 30.3357 98.0892 29.9423C97.7941 29.5264 97.7677 29.3291 97.7677 29.302H95.7677ZM98.1368 32.9097L98.8268 33.5077L100.137 31.9963L99.4466 31.3983L98.1368 32.9097ZM115.842 46.138L114.872 46.3805L115.061 47.138H115.842V46.138ZM116.992 37.398L116.015 37.1869L116.992 37.398ZM116.946 27.692L116.146 28.292L116.149 28.2954L116.946 27.692ZM116.532 27.14L115.535 27.0633L115.506 27.4388L115.732 27.74L116.532 27.14ZM116.578 26.542L116.311 25.5785L115.635 25.7662L115.581 26.4653L116.578 26.542ZM124.536 25.852L125.444 25.4329L125.176 24.852H124.536V25.852ZM125.088 29.21H124.088V32.7641L125.942 29.7314L125.088 29.21ZM133 29.946L133.768 30.5862L134 30.3081V29.946H133ZM132.356 30.682L131.613 30.013L131.609 30.0176L132.356 30.682ZM130.792 31.878L130.245 31.041L130.237 31.046L130.23 31.0511L130.792 31.878ZM128.538 32.844V33.844H128.621L128.703 33.8304L128.538 32.844ZM127.756 31.602L128.617 31.0922L128.617 31.0922L127.756 31.602ZM126.652 30.36V29.36H126.478L126.314 29.4191L126.652 30.36ZM124.628 31.74L123.887 31.0691L123.709 31.2651L123.652 31.5231L124.628 31.74ZM122.558 45.494L122.93 46.4225L123.636 46.1399L123.552 45.3836L122.558 45.494ZM116.164 45.138H115.842V47.138H116.164V45.138ZM116.812 45.8955C116.813 45.8968 116.811 45.8883 116.807 45.8672C116.804 45.8467 116.8 45.8187 116.795 45.7819C116.787 45.7076 116.779 45.6095 116.772 45.4845C116.758 45.2341 116.75 44.9017 116.75 44.482H114.75C114.75 45.308 114.775 45.9924 114.872 46.3805L116.812 45.8955ZM116.75 44.482C116.75 44.1364 116.837 43.405 117.046 42.2167C117.25 41.0543 117.557 39.5199 117.97 37.6091L116.015 37.1869C115.6 39.1094 115.286 40.6723 115.076 41.8713C114.87 43.0444 114.75 43.9383 114.75 44.482H116.75ZM117.97 37.6091C118.384 35.6893 118.697 34.173 118.906 33.064C119.107 32.0031 119.234 31.211 119.234 30.82H117.234C117.234 30.981 117.155 31.5613 116.941 32.693C116.737 33.7767 116.428 35.2734 116.015 37.1869L117.97 37.6091ZM119.234 30.82C119.234 29.5671 118.672 28.3148 117.744 27.0886L116.149 28.2954C116.938 29.3386 117.234 30.1716 117.234 30.82H119.234ZM117.746 27.092L117.332 26.54L115.732 27.74L116.146 28.292L117.746 27.092ZM117.529 27.2167L117.575 26.6187L115.581 26.4653L115.535 27.0633L117.529 27.2167ZM116.846 27.5055C118.363 27.0842 120.9 26.852 124.536 26.852V24.852C120.874 24.852 118.106 25.0798 116.311 25.5785L116.846 27.5055ZM123.628 26.2711C123.909 26.879 124.088 27.8319 124.088 29.21H126.088C126.088 27.7055 125.9 26.4197 125.444 25.4329L123.628 26.2711ZM125.942 29.7314C126.191 29.3239 126.79 28.6743 127.855 27.7613L126.553 26.2427C125.472 27.1697 124.661 27.9921 124.235 28.6885L125.942 29.7314ZM127.855 27.7613C128.793 26.9571 129.675 26.622 130.516 26.622V24.622C129.088 24.622 127.762 25.2069 126.553 26.2427L127.855 27.7613ZM130.516 26.622C130.985 26.622 131.276 26.7895 131.512 27.2011C131.797 27.6962 132 28.5676 132 29.946H134C134 28.4417 133.79 27.1512 133.246 26.2049C132.655 25.1752 131.704 24.622 130.516 24.622V26.622ZM132.232 29.3058C132.091 29.4756 131.886 29.7101 131.613 30.013L133.1 31.351C133.379 31.0405 133.603 30.7844 133.768 30.5862L132.232 29.3058ZM131.609 30.0176C131.463 30.1815 131.049 30.5154 130.245 31.041L131.34 32.715C132.13 32.198 132.759 31.7345 133.104 31.3464L131.609 30.0176ZM130.23 31.0511C129.555 31.5103 128.937 31.7637 128.374 31.8576L128.703 33.8304C129.611 33.6789 130.497 33.2884 131.355 32.7049L130.23 31.0511ZM128.538 31.844C128.795 31.844 128.975 31.9426 129.033 31.9757C129.109 32.0193 129.162 32.0634 129.187 32.0851C129.238 32.1295 129.27 32.1677 129.277 32.1761C129.296 32.1986 129.303 32.209 129.29 32.1909C129.269 32.1606 129.229 32.1004 129.166 32.0007C129.043 31.8054 128.861 31.5043 128.617 31.0922L126.896 32.1118C127.142 32.5277 127.336 32.8476 127.474 33.0663C127.541 33.1736 127.603 33.2687 127.654 33.3419C127.678 33.3754 127.714 33.4247 127.755 33.4731C127.773 33.4944 127.815 33.5423 127.873 33.5932C127.902 33.6181 127.958 33.6646 128.037 33.7099C128.097 33.7446 128.28 33.844 128.538 33.844V31.844ZM128.617 31.0922C128.359 30.657 128.106 30.2834 127.86 30.0061C127.737 29.8678 127.59 29.7242 127.419 29.6088C127.256 29.4986 126.99 29.36 126.652 29.36V31.36C126.437 31.36 126.31 31.2731 126.3 31.2665C126.282 31.2545 126.304 31.2662 126.365 31.3349C126.486 31.4716 126.663 31.719 126.896 32.1118L128.617 31.0922ZM126.314 29.4191C125.382 29.7543 124.572 30.3117 123.887 31.0691L125.37 32.4109C125.85 31.8803 126.389 31.5177 126.991 31.3009L126.314 29.4191ZM123.652 31.5231C122.248 37.841 121.512 42.0655 121.512 44.068H123.512C123.512 42.3291 124.187 38.335 125.604 31.9569L123.652 31.5231ZM121.512 44.068C121.512 44.7423 121.527 45.2675 121.564 45.6044L123.552 45.3836C123.528 45.1685 123.512 44.743 123.512 44.068H121.512ZM122.187 44.5655C121.782 44.7275 121.092 44.8775 120.055 44.982C119.034 45.0848 117.74 45.138 116.164 45.138V47.138C117.778 47.138 119.144 47.0838 120.255 46.972C121.349 46.8618 122.261 46.6898 122.93 46.4225L122.187 44.5655ZM133.472 44.344L132.69 44.9668L132.696 44.9746L133.472 44.344ZM134.392 29.302L133.592 28.702L133.587 28.7085L134.392 29.302ZM141.982 25.622L142.038 24.6235L142.01 24.622H141.982V25.622ZM143.638 25.714L143.583 26.7125L143.86 26.7279L144.106 26.5978L143.638 25.714ZM149.02 32.154H148.02V33.204L149.069 33.1528L149.02 32.154ZM152.838 31.648L153.048 32.6258L153.064 32.6223L153.081 32.6181L152.838 31.648ZM153.574 31.464L154.562 31.3119L154.396 30.2278L153.332 30.4939L153.574 31.464ZM153.85 33.258L154.241 34.1786L154.957 33.8748L154.838 33.1059L153.85 33.258ZM149.756 34.408L149.563 33.4267L149.56 33.4274L149.756 34.408ZM148.836 34.592L148.64 33.6114L147.973 33.7448L147.852 34.4139L148.836 34.592ZM145.294 43.01L146.093 43.6117L146.097 43.6067L145.294 43.01ZM144.374 40.112L143.528 39.5791L143.521 39.5905L144.374 40.112ZM146.536 34.868L147.513 35.0798L147.776 33.868H146.536V34.868ZM142.212 28.428L141.318 27.9808L141.311 27.9937L141.305 28.0069L142.212 28.428ZM142.442 27.968L143.337 28.4152L143.784 27.5208L142.889 27.0736L142.442 27.968ZM141.568 27.968L142.107 28.8103L142.115 28.8052L142.123 28.8L141.568 27.968ZM139.406 31.418L140.343 31.7674L140.343 31.7674L139.406 31.418ZM138.44 45.552C136.586 45.552 135.231 44.9227 134.248 43.7134L132.696 44.9746C134.105 46.7093 136.062 47.552 138.44 47.552V45.552ZM134.255 43.7213C133.245 42.4533 132.678 40.6166 132.678 38.088H130.678C130.678 40.8954 131.307 43.2294 132.69 44.9667L134.255 43.7213ZM132.678 38.088C132.678 34.8715 133.529 32.157 135.197 29.8955L133.587 28.7085C131.637 31.3536 130.678 34.4965 130.678 38.088H132.678ZM135.192 29.902C136.832 27.7148 139.058 26.622 141.982 26.622V24.622C138.466 24.622 135.632 25.9825 133.592 28.702L135.192 29.902ZM141.927 26.6205L143.583 26.7125L143.694 24.7155L142.038 24.6235L141.927 26.6205ZM144.106 26.5978C144.47 26.405 144.89 26.3 145.386 26.3V24.3C144.594 24.3 143.849 24.471 143.17 24.8302L144.106 26.5978ZM145.386 26.3C145.828 26.3 146.169 26.4021 146.444 26.575C146.722 26.75 146.99 27.0337 147.228 27.4819C147.719 28.408 148.02 29.9251 148.02 32.154H150.02C150.02 29.8136 149.715 27.9036 148.995 26.5451C148.627 25.8509 148.138 25.2779 147.508 24.8818C146.875 24.4835 146.155 24.3 145.386 24.3V26.3ZM149.069 33.1528C150.383 33.0887 151.709 32.9126 153.048 32.6258L152.629 30.6702C151.391 30.9354 150.172 31.0966 148.971 31.1552L149.069 33.1528ZM153.081 32.6181L153.817 32.4341L153.332 30.4939L152.596 30.6779L153.081 32.6181ZM152.586 31.6161L152.862 33.4101L154.838 33.1059L154.562 31.3119L152.586 31.6161ZM153.46 32.3374C152.537 32.7287 151.248 33.0959 149.563 33.4268L149.949 35.3892C151.699 35.0454 153.139 34.6459 154.241 34.1786L153.46 32.3374ZM149.56 33.4274L148.64 33.6114L149.032 35.5726L149.952 35.3886L149.56 33.4274ZM147.852 34.4139C147.294 37.4973 146.17 40.1567 144.492 42.4133L146.097 43.6067C147.976 41.0793 149.213 38.1267 149.82 34.7701L147.852 34.4139ZM144.495 42.4083C142.893 44.5362 140.896 45.552 138.44 45.552V47.552C141.566 47.552 144.138 46.2065 146.093 43.6117L144.495 42.4083ZM140.924 43.596C142.715 43.596 144.133 42.4249 145.227 40.6334L143.521 39.5905C142.592 41.1111 141.709 41.596 140.924 41.596V43.596ZM145.22 40.6448C146.323 38.8942 147.089 37.038 147.513 35.0798L145.559 34.6562C145.186 36.3779 144.511 38.0178 143.528 39.5792L145.22 40.6448ZM146.536 33.868C144.991 33.868 144.015 33.5741 143.443 33.1471C142.927 32.7609 142.614 32.1695 142.614 31.188H140.614C140.614 32.6598 141.122 33.9084 142.246 34.7489C143.315 35.5486 144.8 35.868 146.536 35.868V33.868ZM142.614 31.188C142.614 30.3467 142.784 29.571 143.119 28.8491L141.305 28.0069C140.843 29.0024 140.614 30.0667 140.614 31.188H142.614ZM143.107 28.8752L143.337 28.4152L141.548 27.5208L141.318 27.9808L143.107 28.8752ZM142.889 27.0736C142.589 26.9233 142.271 26.876 141.982 26.876V28.876C142 28.876 142.014 28.8768 142.024 28.8776C142.033 28.8785 142.038 28.8794 142.039 28.8796C142.04 28.8799 142.023 28.8766 141.995 28.8624L142.889 27.0736ZM141.982 26.876C141.719 26.876 141.346 26.9142 141.013 27.1359L142.123 28.8C142.042 28.854 141.977 28.8709 141.958 28.8752C141.938 28.8796 141.943 28.876 141.982 28.876V26.876ZM141.029 27.1257C139.964 27.8073 139.151 29.2412 138.469 31.0686L140.343 31.7674C141.011 29.9762 141.639 29.11 142.107 28.8103L141.029 27.1257ZM138.469 31.0686C137.745 33.0102 137.394 35.202 137.394 37.628H139.394C139.394 35.3926 139.718 33.4445 140.343 31.7674L138.469 31.0686ZM137.394 37.628C137.394 39.3365 137.606 40.7685 138.136 41.8078C138.407 42.3418 138.777 42.8001 139.27 43.1222C139.767 43.4478 140.331 43.596 140.924 43.596V41.596C140.674 41.596 140.5 41.5372 140.365 41.4488C140.225 41.3569 140.067 41.1942 139.918 40.9002C139.604 40.2835 139.394 39.2315 139.394 37.628H137.394ZM158.908 31.004L159.847 31.3457L159.849 31.3412L158.908 31.004ZM163.554 42.55L163.931 43.4761L163.945 43.4702L163.96 43.4638L163.554 42.55ZM165.532 41.492L166.098 42.316L166.128 42.2955L166.156 42.2729L165.532 41.492ZM166.222 40.94L167.025 40.3442L166.407 39.5113L165.597 40.1591L166.222 40.94ZM167.28 42.366L168.088 42.9542L168.52 42.3601L168.083 41.7702L167.28 42.366ZM165.808 43.7L166.408 44.5L166.408 44.5L165.808 43.7ZM163.738 45.08L164.234 45.9482L164.234 45.9482L163.738 45.08ZM161.254 46.092L161.544 47.049L161.254 46.092ZM152.882 44.206L153.676 43.5985L153.676 43.5985L152.882 44.206ZM154.078 29.026L153.331 28.3604L153.326 28.3661L154.078 29.026ZM166.728 27.048L166.105 27.8308L166.116 27.8396L166.128 27.848L166.728 27.048ZM167.28 33.994V34.994H167.733L168.032 34.6525L167.28 33.994ZM164.612 33.488L164.928 32.5393L164.928 32.5393L164.612 33.488ZM162.312 32.246L161.326 32.078L161.236 32.6066L161.626 32.9742L162.312 32.246ZM163.002 28.198L163.987 28.366L164.096 27.7261L163.556 27.3659L163.002 28.198ZM161.852 26.922C159.931 26.922 158.723 28.5531 157.966 30.6668L159.849 31.3412C160.564 29.3455 161.319 28.922 161.852 28.922V26.922ZM157.968 30.6623C157.189 32.8045 156.804 35.0984 156.804 37.536H158.804C158.804 35.3123 159.154 33.2515 159.847 31.3457L157.968 30.6623ZM156.804 37.536C156.804 39.4463 157.092 41.0477 157.803 42.2009C158.564 43.4336 159.747 44.056 161.208 44.056V42.056C160.399 42.056 159.88 41.7584 159.506 41.1511C159.082 40.4643 158.804 39.3057 158.804 37.536H156.804ZM161.208 44.056C162.098 44.056 163.008 43.852 163.931 43.4761L163.176 41.6239C162.443 41.9226 161.79 42.056 161.208 42.056V44.056ZM163.96 43.4638C164.818 43.0823 165.538 42.7011 166.098 42.316L164.965 40.668C164.544 40.9575 163.945 41.2817 163.147 41.6362L163.96 43.4638ZM166.156 42.2729L166.846 41.7209L165.597 40.1591L164.907 40.7111L166.156 42.2729ZM165.419 41.5358L166.477 42.9618L168.083 41.7702L167.025 40.3442L165.419 41.5358ZM166.471 41.7778C166.321 41.9845 165.936 42.3535 165.208 42.9L166.408 44.5C167.151 43.9425 167.748 43.4221 168.088 42.9542L166.471 41.7778ZM165.208 42.9C164.497 43.4328 163.842 43.8685 163.241 44.2118L164.234 45.9482C164.921 45.5555 165.646 45.0712 166.408 44.5L165.208 42.9ZM163.241 44.2118C162.684 44.5305 161.931 44.8417 160.964 45.135L161.544 47.049C162.6 46.729 163.504 46.3655 164.234 45.9482L163.241 44.2118ZM160.964 45.135C160.038 45.4154 159.139 45.552 158.264 45.552V47.552C159.351 47.552 160.445 47.382 161.544 47.049L160.964 45.135ZM158.264 45.552C156.108 45.552 154.642 44.8613 153.676 43.5985L152.087 44.8135C153.514 46.6787 155.635 47.552 158.264 47.552V45.552ZM153.676 43.5985C152.652 42.2599 152.088 40.3958 152.088 37.904H150.088C150.088 40.6868 150.719 43.0241 152.087 44.8135L153.676 43.5985ZM152.088 37.904C152.088 34.4446 153.028 31.7366 154.829 29.6859L153.326 28.3661C151.141 30.8541 150.088 34.0648 150.088 37.904H152.088ZM154.824 29.6916C156.65 27.6442 158.965 26.622 161.852 26.622V24.622C158.42 24.622 155.553 25.8691 153.331 28.3604L154.824 29.6916ZM161.852 26.622C163.758 26.622 165.139 27.0625 166.105 27.8308L167.35 26.2652C165.924 25.1321 164.055 24.622 161.852 24.622V26.622ZM166.128 27.848C167.135 28.6033 167.568 29.4709 167.568 30.498H169.568C169.568 28.7651 168.774 27.3327 167.328 26.248L166.128 27.848ZM167.568 30.498C167.568 31.6143 167.22 32.5433 166.527 33.3355L168.032 34.6525C169.056 33.4821 169.568 32.0803 169.568 30.498H167.568ZM167.28 32.994C166.653 32.994 165.875 32.8549 164.928 32.5393L164.295 34.4367C165.373 34.7957 166.373 34.994 167.28 34.994V32.994ZM164.928 32.5393C163.992 32.2273 163.374 31.8726 162.997 31.5178L161.626 32.9742C162.292 33.6008 163.207 34.074 164.295 34.4367L164.928 32.5393ZM163.297 32.414L163.987 28.366L162.016 28.03L161.326 32.078L163.297 32.414ZM163.556 27.3659C163.055 27.0316 162.45 26.922 161.852 26.922V28.922C162.234 28.922 162.396 28.9963 162.447 29.0301L163.556 27.3659ZM174.477 13.478L174.15 12.533L173.134 12.8844L173.558 13.8719L174.477 13.478ZM181.239 12.236L181.946 11.5289L181.653 11.236H181.239V12.236ZM179.123 28.98L178.149 28.7521L177.477 31.6231L179.757 29.7532L179.123 28.98ZM190.255 26.726L190.919 25.9786L190.919 25.9786L190.255 26.726ZM185.011 35.696L184.744 34.7322L183.744 35.0089L184.058 35.9984L185.011 35.696ZM187.679 42.182L186.85 42.7419L186.855 42.7485L187.679 42.182ZM190.531 42.136L190.117 41.2256L190.105 41.2309L190.094 41.2365L190.531 42.136ZM191.037 41.906L191.942 41.4802L191.521 40.5873L190.623 40.9956L191.037 41.906ZM191.773 43.47L192.449 44.2072L192.991 43.71L192.678 43.0442L191.773 43.47ZM188.691 45.54L189.155 46.4259L189.162 46.4218L188.691 45.54ZM180.135 40.02L181.112 39.8067L181.109 39.7963L180.135 40.02ZM179.353 34.776L179.125 33.8024L178.307 33.994L178.354 34.8325L179.353 34.776ZM183.723 33.12L184.284 33.9479L184.289 33.944L183.723 33.12ZM178.387 32.154L177.739 31.3921L177.489 31.6044L177.414 31.9234L178.387 32.154ZM176.087 45.448L176.366 46.4082L177.087 46.1985V45.448H176.087ZM169.509 46.184L168.511 46.2427L168.566 47.184H169.509V46.184ZM172.085 31.28L171.11 31.0549L171.11 31.0585L172.085 31.28ZM175.753 15.64C175.753 14.6141 175.666 13.7149 175.396 13.0841L173.558 13.8719C173.655 14.0998 173.753 14.6419 173.753 15.64H175.753ZM174.804 14.423C177.111 13.6245 179.254 13.236 181.239 13.236V11.236C178.992 11.236 176.627 11.6755 174.15 12.533L174.804 14.423ZM180.532 12.9431C180.454 12.8649 180.509 12.8652 180.568 13.164C180.62 13.428 180.653 13.8167 180.653 14.352H182.653C182.653 13.7526 182.617 13.2213 182.531 12.78C182.451 12.3734 182.3 11.8831 181.946 11.5289L180.532 12.9431ZM180.653 14.352C180.653 16.7635 179.84 21.5287 178.149 28.7521L180.096 29.2079C181.779 22.018 182.653 17.0312 182.653 14.352H180.653ZM179.757 29.7532C182.366 27.6135 184.848 26.622 187.219 26.622V24.622C184.254 24.622 181.339 25.8692 178.489 28.2068L179.757 29.7532ZM187.219 26.622C188.191 26.622 188.961 26.9136 189.59 27.4734L190.919 25.9786C189.893 25.0664 188.639 24.622 187.219 24.622V26.622ZM189.59 27.4734C190.15 27.9704 190.497 28.7374 190.497 29.946H192.497C192.497 28.3332 192.016 26.9536 190.919 25.9786L189.59 27.4734ZM190.497 29.946C190.497 30.9493 190.102 31.8243 189.212 32.6132C188.291 33.4298 186.833 34.1546 184.744 34.7322L185.277 36.6598C187.513 36.0414 189.298 35.2099 190.539 34.1098C191.811 32.982 192.497 31.5801 192.497 29.946H190.497ZM184.058 35.9984C185.069 39.1852 185.994 41.4745 186.85 42.7419L188.507 41.6221C187.83 40.6202 186.977 38.5854 185.964 35.3936L184.058 35.9984ZM186.855 42.7485C187.037 43.014 187.223 43.2554 187.409 43.4411C187.501 43.5338 187.619 43.6376 187.758 43.7237C187.889 43.8041 188.118 43.918 188.415 43.918V41.918C188.529 41.918 188.62 41.9407 188.682 41.962C188.742 41.9832 188.785 42.0068 188.807 42.0203C188.847 42.045 188.853 42.0568 188.823 42.0269C188.796 42.0004 188.755 41.9548 188.699 41.8833C188.643 41.8128 188.578 41.7243 188.503 41.6155L186.855 42.7485ZM188.415 43.918C188.776 43.918 189.183 43.7939 189.543 43.6605C189.939 43.5142 190.417 43.3032 190.968 43.0355L190.094 41.2365C189.572 41.4901 189.16 41.6701 188.85 41.7845C188.506 41.9118 188.391 41.918 188.415 41.918V43.918ZM190.945 43.0464L191.451 42.8164L190.623 40.9956L190.117 41.2256L190.945 43.0464ZM190.132 42.3318L190.868 43.8958L192.678 43.0442L191.942 41.4802L190.132 42.3318ZM191.097 42.7328C190.445 43.3304 189.497 43.9749 188.219 44.6582L189.162 46.4218C190.522 45.6945 191.628 44.9589 192.449 44.2072L191.097 42.7328ZM188.227 44.6542C187.034 45.2792 186.013 45.552 185.149 45.552V47.552C186.431 47.552 187.772 47.1501 189.155 46.4258L188.227 44.6542ZM185.149 45.552C184.312 45.552 183.573 45.1935 182.895 44.3101C182.187 43.3888 181.573 41.9195 181.112 39.8067L179.158 40.2333C179.647 42.4752 180.344 44.2718 181.308 45.5279C182.301 46.8218 183.593 47.552 185.149 47.552V45.552ZM181.109 39.7963C180.691 37.9711 180.44 36.2796 180.351 34.7195L178.354 34.8325C178.45 36.5231 178.72 38.3275 179.16 40.2437L181.109 39.7963ZM179.581 35.7496C181.587 35.2795 183.183 34.6936 184.284 33.9479L183.162 32.2921C182.361 32.8344 181.044 33.3524 179.125 33.8024L179.581 35.7496ZM184.289 33.944C185.487 33.1207 186.195 31.993 186.195 30.59H184.195C184.195 31.211 183.921 31.7699 183.156 32.296L184.289 33.944ZM186.195 30.59C186.195 29.9145 186.025 29.2242 185.511 28.7099C184.997 28.1955 184.306 28.026 183.631 28.026V30.026C183.998 30.026 184.09 30.1171 184.097 30.1241C184.104 30.1311 184.195 30.2228 184.195 30.59H186.195ZM183.631 28.026C182.826 28.026 181.932 28.4083 181.026 28.9492C180.085 29.5104 178.987 30.3315 177.739 31.3921L179.034 32.9159C180.24 31.8911 181.243 31.1482 182.05 30.6668C182.891 30.1651 183.393 30.026 183.631 30.026V28.026ZM177.414 31.9234C175.884 38.381 175.087 42.9219 175.087 45.448H177.087C177.087 43.1901 177.823 38.8684 179.36 32.3846L177.414 31.9234ZM175.807 44.4878C174.246 44.9419 172.158 45.184 169.509 45.184V47.184C172.257 47.184 174.554 46.9354 176.366 46.4082L175.807 44.4878ZM170.507 46.1253C170.477 45.6179 170.463 45.1782 170.463 44.804H168.463C168.463 45.2272 168.479 45.7074 168.511 46.2427L170.507 46.1253ZM170.463 44.804C170.463 44.26 170.658 42.9048 171.1 40.6243C171.534 38.3855 172.187 35.346 173.06 31.5015L171.11 31.0585C170.235 34.9114 169.577 37.9745 169.137 40.2437C168.705 42.4712 168.463 44.0293 168.463 44.804H170.463ZM173.059 31.5051C174.834 23.824 175.753 18.5014 175.753 15.64H173.753C173.753 18.2373 172.893 23.3413 171.11 31.0549L173.059 31.5051ZM204.552 44.712L203.971 43.8982L203.964 43.9033L204.552 44.712ZM193.558 45.172L192.968 45.9791L192.977 45.9857L193.558 45.172ZM193.282 40.664L193.945 41.4126L193.951 41.4074L193.957 41.402L193.282 40.664ZM195.996 38.87L196.591 38.0662L196.192 37.7711L195.716 37.91L195.996 38.87ZM199.768 44.252L198.84 44.6234L199.114 45.3083L199.849 45.2487L199.768 44.252ZM197.744 36.662L197.02 37.3519L197.024 37.3561L197.744 36.662ZM196.088 26.91L196.603 27.7675L196.61 27.7633L196.616 27.7591L196.088 26.91ZM205.472 26.68L204.889 27.492L204.897 27.4981L204.906 27.504L205.472 26.68ZM204.138 34.362L203.394 33.6942L202.761 34.3993L203.431 35.0691L204.138 34.362ZM204.966 35.236L204.229 35.9117L204.244 35.9277L204.259 35.9431L204.966 35.236ZM206.3 37.214L207.172 36.7237L207.172 36.7237L206.3 37.214ZM202.712 32.752L202.057 33.5077L202.709 34.0722L203.363 33.5113L202.712 32.752ZM200.688 28.336L201.203 29.1935L201.223 29.1812L201.243 29.168L200.688 28.336ZM202.022 32.154L201.35 32.8939L201.358 32.9019L201.367 32.9097L202.022 32.154ZM206.128 39.974C206.128 41.5497 205.454 42.8391 203.971 43.8983L205.133 45.5257C207.085 44.1316 208.128 42.2623 208.128 39.974H206.128ZM203.964 43.9033C202.456 44.9999 200.732 45.552 198.756 45.552V47.552C201.135 47.552 203.275 46.8774 205.14 45.5207L203.964 43.9033ZM198.756 45.552C196.711 45.552 195.205 45.1192 194.139 44.3583L192.977 45.9857C194.488 47.0648 196.447 47.552 198.756 47.552V45.552ZM194.149 44.365C193.561 43.9349 193.17 43.5651 192.935 43.2606C192.696 42.9523 192.672 42.7842 192.672 42.734H190.672C190.672 43.3892 190.963 43.9801 191.353 44.4844C191.746 44.9925 192.298 45.4891 192.968 45.979L194.149 44.365ZM192.672 42.734C192.672 42.8778 192.614 42.8293 192.864 42.5084C193.078 42.233 193.429 41.8694 193.945 41.4126L192.619 39.9154C192.062 40.4093 191.608 40.866 191.285 41.2806C190.998 41.6497 190.672 42.1609 190.672 42.734H192.672ZM193.957 41.402C195.001 40.4473 195.767 39.9786 196.276 39.83L195.716 37.91C194.754 38.1908 193.71 38.918 192.607 39.926L193.957 41.402ZM195.401 39.6738C196.739 40.6634 197.902 42.2787 198.84 44.6234L200.697 43.8806C199.672 41.3187 198.32 39.3459 196.591 38.0662L195.401 39.6738ZM199.849 45.2487C200.543 45.1925 201.222 44.9894 201.732 44.507C202.264 44.0037 202.47 43.3325 202.47 42.642H200.47C200.47 42.9328 200.393 43.0206 200.357 43.054C200.3 43.1082 200.128 43.2195 199.687 43.2553L199.849 45.2487ZM202.47 42.642C202.47 41.6633 202.049 40.6213 201.387 39.5602C200.715 38.4817 199.732 37.283 198.464 35.9679L197.024 37.3561C198.24 38.617 199.12 39.7029 199.69 40.6178C200.271 41.5501 200.47 42.21 200.47 42.642H202.47ZM198.468 35.9721C197.255 34.6988 196.377 33.5891 195.807 32.64C195.231 31.6791 195.018 30.9616 195.018 30.452H193.018C193.018 31.4757 193.427 32.5599 194.092 33.669C194.765 34.7899 195.75 36.0185 197.02 37.3519L198.468 35.9721ZM195.018 30.452C195.018 29.2907 195.506 28.4257 196.603 27.7675L195.574 26.0525C193.911 27.0503 193.018 28.5467 193.018 30.452H195.018ZM196.616 27.7591C197.81 27.0163 199.275 26.622 201.056 26.622V24.622C198.973 24.622 197.126 25.0864 195.56 26.0609L196.616 27.7591ZM201.056 26.622C202.929 26.622 204.154 26.9639 204.889 27.492L206.056 25.868C204.828 24.9854 203.109 24.622 201.056 24.622V26.622ZM204.906 27.504C205.614 27.9912 205.944 28.6176 205.944 29.486H207.944C207.944 27.9624 207.293 26.7181 206.039 25.856L204.906 27.504ZM205.944 29.486C205.944 29.8177 205.804 30.3361 205.376 31.0802C204.956 31.8107 204.303 32.6807 203.394 33.6942L204.883 35.0298C205.844 33.958 206.594 32.9726 207.109 32.0778C207.617 31.1965 207.944 30.3196 207.944 29.486H205.944ZM203.431 35.0691C203.631 35.2691 203.896 35.5486 204.229 35.9117L205.703 34.5603C205.362 34.1874 205.075 33.8842 204.845 33.6549L203.431 35.0691ZM204.259 35.9431C204.49 36.1738 204.877 36.7241 205.429 37.7043L207.172 36.7237C206.619 35.7413 206.117 34.9728 205.673 34.5289L204.259 35.9431ZM205.429 37.7043C205.922 38.5811 206.128 39.3324 206.128 39.974H208.128C208.128 38.8983 207.783 37.8096 207.172 36.7237L205.429 37.7043ZM203.363 33.5113C204.745 32.3266 205.644 30.9854 205.644 29.486H203.644C203.644 30.1333 203.255 30.9694 202.061 31.9927L203.363 33.5113ZM205.644 29.486C205.644 28.6946 205.356 27.9622 204.681 27.4705C204.066 27.0216 203.264 26.876 202.436 26.876V28.876C203.08 28.876 203.383 28.9987 203.503 29.0865C203.565 29.1314 203.644 29.2041 203.644 29.486H205.644ZM202.436 26.876C201.588 26.876 200.798 27.0612 200.133 27.504L201.243 29.168C201.499 28.9975 201.874 28.876 202.436 28.876V26.876ZM200.174 27.4785C199.563 27.8449 198.998 28.437 198.998 29.302H200.998C200.998 29.3162 200.996 29.3339 200.99 29.3509C200.985 29.3671 200.98 29.3722 200.984 29.3657C200.997 29.3485 201.051 29.2846 201.203 29.1935L200.174 27.4785ZM198.998 29.302C198.998 29.9495 199.309 30.5649 199.689 31.0997C200.084 31.657 200.648 32.256 201.35 32.8939L202.695 31.4141C202.047 30.8253 201.599 30.3357 201.32 29.9423C201.025 29.5264 200.998 29.3291 200.998 29.302H198.998ZM201.367 32.9097L202.057 33.5077L203.367 31.9963L202.677 31.3983L201.367 32.9097ZM218.144 29.762L217.188 29.4688L217.184 29.4798L218.144 29.762ZM217.27 32.614L216.315 32.3169L216.313 32.3238L216.311 32.3307L217.27 32.614ZM216.35 35.742L216.666 36.6907L217.163 36.525L217.31 36.022L216.35 35.742ZM212.486 36.064L211.499 35.9003L211.329 36.9272L212.362 37.0563L212.486 36.064ZM214.142 18.446H215.142V18.4103L215.139 18.3748L214.142 18.446ZM213.866 14.582L213.563 13.6289L212.812 13.8674L212.868 14.6532L213.866 14.582ZM220.858 13.34L221.69 12.7853L221.393 12.34H220.858V13.34ZM210.232 45.678L209.525 46.3851L209.534 46.3942L209.543 46.403L210.232 45.678ZM210.554 40.572L209.888 39.8261L209.881 39.8321L209.874 39.8382L210.554 40.572ZM216.074 40.342L215.367 41.0491L215.367 41.0491L216.074 40.342ZM215.66 45.402L215.007 44.6446L215 44.6503L214.994 44.6561L215.66 45.402ZM220.134 15.456C220.134 18.3302 219.179 22.9746 217.188 29.4689L219.1 30.0551C221.095 23.5467 222.134 18.6538 222.134 15.456H220.134ZM217.184 29.4798C217.034 29.9927 216.744 30.9364 216.315 32.3169L218.225 32.9111C218.654 31.5316 218.947 30.574 219.103 30.0442L217.184 29.4798ZM216.311 32.3307C215.912 33.6803 215.605 34.7243 215.39 35.462L217.31 36.022C217.524 35.2877 217.83 34.2463 218.229 32.8973L216.311 32.3307ZM216.034 34.7933C215.274 35.0466 214.648 35.156 214.142 35.156V37.156C214.924 37.156 215.77 36.9894 216.666 36.6907L216.034 34.7933ZM214.142 35.156C213.56 35.156 213.051 35.1269 212.61 35.0717L212.362 37.0563C212.902 37.1238 213.496 37.156 214.142 37.156V35.156ZM213.472 36.2277C214.583 29.5352 215.142 23.6058 215.142 18.446H213.142C213.142 23.4675 212.597 29.2835 211.499 35.9003L213.472 36.2277ZM215.139 18.3748L214.863 14.5108L212.868 14.6532L213.144 18.5172L215.139 18.3748ZM214.168 15.5351C216.708 14.7285 218.933 14.34 220.858 14.34V12.34C218.673 12.34 216.237 12.7795 213.563 13.6289L214.168 15.5351ZM220.026 13.8947C219.98 13.8262 220.029 13.8691 220.073 14.2053C220.111 14.4976 220.134 14.9097 220.134 15.456H222.134C222.134 14.8676 222.11 14.3597 222.056 13.9467C222.008 13.5775 221.919 13.1298 221.69 12.7853L220.026 13.8947ZM210.939 44.9709C210.544 44.5764 210.312 44.0345 210.312 43.24H208.312C208.312 44.4695 208.693 45.553 209.525 46.3851L210.939 44.9709ZM210.312 43.24C210.312 42.5402 210.583 41.9073 211.233 41.3058L209.874 39.8382C208.868 40.77 208.312 41.9158 208.312 43.24H210.312ZM211.22 41.3179C211.904 40.7072 212.651 40.422 213.498 40.422V38.422C212.137 38.422 210.921 38.9034 209.888 39.8261L211.22 41.3179ZM213.498 40.422C214.412 40.422 214.988 40.6709 215.367 41.0491L216.781 39.6349C215.932 38.7864 214.791 38.422 213.498 38.422V40.422ZM215.367 41.0491C215.761 41.4436 215.994 41.9855 215.994 42.78H217.994C217.994 41.5505 217.613 40.467 216.781 39.6349L215.367 41.0491ZM215.994 42.78C215.994 43.413 215.723 44.0269 215.007 44.6446L216.313 46.1594C217.375 45.2438 217.994 44.1097 217.994 42.78H215.994ZM214.994 44.6561C214.304 45.272 213.571 45.552 212.762 45.552V47.552C214.099 47.552 215.298 47.0653 216.326 46.1479L214.994 44.6561ZM212.762 45.552C211.873 45.552 211.302 45.3152 210.92 44.953L209.543 46.403C210.388 47.2062 211.504 47.552 212.762 47.552V45.552Z" fill="#FF76E1" fill-opacity="0.54"/>
</g>
<defs>
<filter id="filter0_di_3_4" x="0.161072" y="12.236" width="224.973" height="52.068" filterUnits="userSpaceOnUse" color-interpolation-filters="sRGB">
<feFlood flood-opacity="0" result="BackgroundImageFix"/>
<feColorMatrix in="SourceAlpha" type="matrix" values="0 0 0 0 0 0 0 0 0 0 0 0 0 0 0 0 0 0 127 0" result="hardAlpha"/>
<feOffset dy="4"/>
<feGaussianBlur stdDeviation="2"/>
<feComposite in2="hardAlpha" operator="out"/>
<feColorMatrix type="matrix" values="0 0 0 0 0 0 0 0 0 0 0 0 0 0 0 0 0 0 0.25 0"/>
<feBlend mode="normal" in2="BackgroundImageFix" result="effect1_dropShadow_3_4"/>
<feBlend mode="normal" in="SourceGraphic" in2="effect1_dropShadow_3_4" result="shape"/>
<feColorMatrix in="SourceAlpha" type="matrix" values="0 0 0 0 0 0 0 0 0 0 0 0 0 0 0 0 0 0 127 0" result="hardAlpha"/>
<feOffset dx="2" dy="2"/>
<feGaussianBlur stdDeviation="3"/>
<feComposite in2="hardAlpha" operator="arithmetic" k2="-1" k3="1"/>
<feColorMatrix type="matrix" values="0 0 0 0 0.766667 0 0 0 0 0.351389 0 0 0 0 0.725139 0 0 0 0.64 0"/>
<feBlend mode="normal" in2="shape" result="effect2_innerShadow_3_4"/>
</filter>
</defs>
</svg>
